<mxfile host="65bd71144e">
    <diagram id="BOWSGq2SgDkO45w0m0nM" name="Page-1">
        <mxGraphModel dx="1536" dy="1466" grid="1" gridSize="10" guides="1" tooltips="1" connect="1" arrows="1" fold="1" page="1" pageScale="1" pageWidth="850" pageHeight="1100" math="0" shadow="0">
            <root>
                <mxCell id="0"/>
                <mxCell id="1" parent="0"/>
                <mxCell id="129" value="" style="rounded=1;whiteSpace=wrap;html=1;fontFamily=Helvetica;fontSize=12;fontColor=#000000;fillColor=none;" parent="1" vertex="1">
                    <mxGeometry x="510" y="-580" width="2510" height="740" as="geometry"/>
                </mxCell>
                <mxCell id="42" value="Events + State Design Process" style="text;html=1;strokeColor=none;fillColor=none;align=center;verticalAlign=middle;whiteSpace=wrap;rounded=0;fontFamily=Helvetica;fontSize=12;fontColor=#FFFFFF;" parent="1" vertex="1">
                    <mxGeometry x="10" y="130" width="180" height="30" as="geometry"/>
                </mxCell>
                <mxCell id="43" value="Categirize each step as 'state' or 'event handler'" style="rounded=0;whiteSpace=wrap;html=1;fontFamily=Helvetica;fontSize=12;fontColor=#000000;fillColor=#FFFFFF;" parent="1" vertex="1">
                    <mxGeometry x="40" y="200" width="340" height="30" as="geometry"/>
                </mxCell>
                <mxCell id="44" value="2" style="rounded=0;whiteSpace=wrap;html=1;fontFamily=Helvetica;fontSize=12;fontColor=#000000;fillColor=#99CCFF;" parent="1" vertex="1">
                    <mxGeometry x="10" y="200" width="30" height="30" as="geometry"/>
                </mxCell>
                <mxCell id="45" value="Group common steps. Remove duplicates. Rewrite changing" style="rounded=0;whiteSpace=wrap;html=1;fontFamily=Helvetica;fontSize=12;fontColor=#000000;fillColor=#FFFFFF;" parent="1" vertex="1">
                    <mxGeometry x="40" y="240" width="340" height="30" as="geometry"/>
                </mxCell>
                <mxCell id="46" value="3" style="rounded=0;whiteSpace=wrap;html=1;fontFamily=Helvetica;fontSize=12;fontColor=#000000;fillColor=#99CCFF;" parent="1" vertex="1">
                    <mxGeometry x="10" y="240" width="30" height="30" as="geometry"/>
                </mxCell>
                <mxCell id="54" value="" style="group" parent="1" vertex="1" connectable="0">
                    <mxGeometry x="10" y="400" width="370" height="50" as="geometry"/>
                </mxCell>
                <mxCell id="51" value="Imagine you have to write a function that returns the text of steps #5 abd #6/ In addition to your component props, what other arguments would you need?" style="rounded=0;whiteSpace=wrap;html=1;fontFamily=Helvetica;fontSize=12;fontColor=#000000;fillColor=#FFFFFF;" parent="54" vertex="1">
                    <mxGeometry x="30" width="340" height="50" as="geometry"/>
                </mxCell>
                <mxCell id="52" value="7" style="rounded=0;whiteSpace=wrap;html=1;fontFamily=Helvetica;fontSize=12;fontColor=#000000;fillColor=#99CCFF;" parent="54" vertex="1">
                    <mxGeometry width="30" height="50" as="geometry"/>
                </mxCell>
                <mxCell id="55" value="" style="group" parent="1" vertex="1" connectable="0">
                    <mxGeometry x="10" y="460" width="370" height="30" as="geometry"/>
                </mxCell>
                <mxCell id="56" value="Decide where each event handler + state will be defined" style="rounded=0;whiteSpace=wrap;html=1;fontFamily=Helvetica;fontSize=12;fontColor=#000000;fillColor=#FFFFFF;" parent="55" vertex="1">
                    <mxGeometry x="30" width="340" height="30" as="geometry"/>
                </mxCell>
                <mxCell id="57" value="8" style="rounded=0;whiteSpace=wrap;html=1;fontFamily=Helvetica;fontSize=12;fontColor=#000000;fillColor=#99CCFF;" parent="55" vertex="1">
                    <mxGeometry width="30" height="30" as="geometry"/>
                </mxCell>
                <mxCell id="58" value="" style="group" parent="1" vertex="1" connectable="0">
                    <mxGeometry x="10" y="320" width="370" height="30" as="geometry"/>
                </mxCell>
                <mxCell id="49" value="Replace remaining elements with text descriptions" style="rounded=0;whiteSpace=wrap;html=1;fontFamily=Helvetica;fontSize=12;fontColor=#000000;fillColor=#FFFFFF;" parent="58" vertex="1">
                    <mxGeometry x="30" width="340" height="30" as="geometry"/>
                </mxCell>
                <mxCell id="50" value="5" style="rounded=0;whiteSpace=wrap;html=1;fontFamily=Helvetica;fontSize=12;fontColor=#000000;fillColor=#99CCFF;" parent="58" vertex="1">
                    <mxGeometry width="30" height="30" as="geometry"/>
                </mxCell>
                <mxCell id="59" value="" style="group" parent="1" vertex="1" connectable="0">
                    <mxGeometry x="10" y="280" width="370" height="30" as="geometry"/>
                </mxCell>
                <mxCell id="47" value="Look at mockup. Remove or simplify parts that aren't changing" style="rounded=0;whiteSpace=wrap;html=1;fontFamily=Helvetica;fontSize=12;fontColor=#000000;fillColor=#FFFFFF;" parent="59" vertex="1">
                    <mxGeometry x="30" width="340" height="30" as="geometry"/>
                </mxCell>
                <mxCell id="48" value="4" style="rounded=0;whiteSpace=wrap;html=1;fontFamily=Helvetica;fontSize=12;fontColor=#000000;fillColor=#99CCFF;" parent="59" vertex="1">
                    <mxGeometry width="30" height="30" as="geometry"/>
                </mxCell>
                <mxCell id="60" value="" style="group" parent="1" vertex="1" connectable="0">
                    <mxGeometry x="10" y="360" width="370" height="30" as="geometry"/>
                </mxCell>
                <mxCell id="61" value="Repeat #4 and #5 with a different variation" style="rounded=0;whiteSpace=wrap;html=1;fontFamily=Helvetica;fontSize=12;fontColor=#000000;fillColor=#FFFFFF;" parent="60" vertex="1">
                    <mxGeometry x="30" width="340" height="30" as="geometry"/>
                </mxCell>
                <mxCell id="62" value="6" style="rounded=0;whiteSpace=wrap;html=1;fontFamily=Helvetica;fontSize=12;fontColor=#000000;fillColor=#99CCFF;" parent="60" vertex="1">
                    <mxGeometry width="30" height="30" as="geometry"/>
                </mxCell>
                <mxCell id="63" value="" style="group" parent="1" vertex="1" connectable="0">
                    <mxGeometry x="10" y="160" width="370" height="30" as="geometry"/>
                </mxCell>
                <mxCell id="36" value="List out what a user will do and changes they will see while using your app" style="rounded=0;whiteSpace=wrap;html=1;fontFamily=Helvetica;fontSize=12;fontColor=#000000;fillColor=#FFFFFF;" parent="63" vertex="1">
                    <mxGeometry x="30" width="340" height="30" as="geometry"/>
                </mxCell>
                <mxCell id="37" value="1" style="rounded=0;whiteSpace=wrap;html=1;fontFamily=Helvetica;fontSize=12;fontColor=#000000;fillColor=#99CCFF;" parent="63" vertex="1">
                    <mxGeometry width="30" height="30" as="geometry"/>
                </mxCell>
                <mxCell id="130" style="edgeStyle=none;html=1;entryX=0;entryY=0.5;entryDx=0;entryDy=0;fontFamily=Helvetica;fontSize=12;fontColor=#000000;" parent="1" source="69" target="129" edge="1">
                    <mxGeometry relative="1" as="geometry">
                        <Array as="points">
                            <mxPoint x="-50" y="-210"/>
                        </Array>
                    </mxGeometry>
                </mxCell>
                <mxCell id="69" value="What stete + event handlers are there" style="text;html=1;strokeColor=none;fillColor=none;align=center;verticalAlign=middle;whiteSpace=wrap;rounded=0;fontFamily=Helvetica;fontSize=12;fontColor=#FFFFFF;" parent="1" vertex="1">
                    <mxGeometry x="-80" y="180" width="60" height="70" as="geometry"/>
                </mxCell>
                <mxCell id="70" value="" style="shape=curlyBracket;whiteSpace=wrap;html=1;rounded=1;labelPosition=left;verticalLabelPosition=middle;align=right;verticalAlign=middle;fontFamily=Helvetica;fontSize=12;fontColor=#FFFFFF;fillColor=#99CCFF;" parent="1" vertex="1">
                    <mxGeometry x="-20" y="155" width="20" height="120" as="geometry"/>
                </mxCell>
                <mxCell id="180" style="edgeStyle=none;html=1;entryX=0;entryY=0.5;entryDx=0;entryDy=0;fontFamily=Helvetica;fontSize=20;fontColor=#000000;" parent="1" source="71" target="179" edge="1">
                    <mxGeometry relative="1" as="geometry">
                        <Array as="points">
                            <mxPoint x="-320" y="340"/>
                            <mxPoint x="-320" y="600"/>
                        </Array>
                    </mxGeometry>
                </mxCell>
                <mxCell id="71" value="What name and type?" style="text;html=1;strokeColor=none;fillColor=none;align=center;verticalAlign=middle;whiteSpace=wrap;rounded=0;fontFamily=Helvetica;fontSize=12;fontColor=#FFFFFF;" parent="1" vertex="1">
                    <mxGeometry x="-80" y="305" width="60" height="70" as="geometry"/>
                </mxCell>
                <mxCell id="72" value="" style="shape=curlyBracket;whiteSpace=wrap;html=1;rounded=1;labelPosition=left;verticalLabelPosition=middle;align=right;verticalAlign=middle;fontFamily=Helvetica;fontSize=12;fontColor=#FFFFFF;fillColor=#99CCFF;" parent="1" vertex="1">
                    <mxGeometry x="-20" y="280" width="20" height="170" as="geometry"/>
                </mxCell>
                <mxCell id="190" style="edgeStyle=none;html=1;entryX=0;entryY=0.5;entryDx=0;entryDy=0;fontFamily=Helvetica;fontSize=20;fontColor=#FFFFFF;" parent="1" source="73" target="189" edge="1">
                    <mxGeometry relative="1" as="geometry">
                        <Array as="points">
                            <mxPoint x="-50" y="1300"/>
                        </Array>
                    </mxGeometry>
                </mxCell>
                <mxCell id="73" value="Where's it defined" style="text;html=1;strokeColor=none;fillColor=none;align=center;verticalAlign=middle;whiteSpace=wrap;rounded=0;fontFamily=Helvetica;fontSize=12;fontColor=#FFFFFF;" parent="1" vertex="1">
                    <mxGeometry x="-80" y="440" width="60" height="70" as="geometry"/>
                </mxCell>
                <mxCell id="74" value="" style="shape=curlyBracket;whiteSpace=wrap;html=1;rounded=1;labelPosition=left;verticalLabelPosition=middle;align=right;verticalAlign=middle;fontFamily=Helvetica;fontSize=12;fontColor=#FFFFFF;fillColor=#99CCFF;" parent="1" vertex="1">
                    <mxGeometry x="-20" y="460" width="20" height="30" as="geometry"/>
                </mxCell>
                <mxCell id="75" value="Clicked on third section" style="rounded=0;whiteSpace=wrap;html=1;fontFamily=Helvetica;fontSize=12;fontColor=#000000;fillColor=#99CCFF;" parent="1" vertex="1">
                    <mxGeometry x="600" y="-270" width="270" height="45" as="geometry"/>
                </mxCell>
                <mxCell id="78" value="First section collapsed" style="rounded=0;whiteSpace=wrap;html=1;fontFamily=Helvetica;fontSize=12;fontColor=#000000;fillColor=#99CCFF;" parent="1" vertex="1">
                    <mxGeometry x="600" y="-212.5" width="270" height="45" as="geometry"/>
                </mxCell>
                <mxCell id="79" value="Third section expanded" style="rounded=0;whiteSpace=wrap;html=1;fontFamily=Helvetica;fontSize=12;fontColor=#000000;fillColor=#99CCFF;" parent="1" vertex="1">
                    <mxGeometry x="600" y="-152.5" width="270" height="45" as="geometry"/>
                </mxCell>
                <mxCell id="80" value="Clicked on second section" style="rounded=0;whiteSpace=wrap;html=1;fontFamily=Helvetica;fontSize=12;fontColor=#000000;fillColor=#99CCFF;" parent="1" vertex="1">
                    <mxGeometry x="600" y="-95" width="270" height="45" as="geometry"/>
                </mxCell>
                <mxCell id="81" value="Third section collapsed" style="rounded=0;whiteSpace=wrap;html=1;fontFamily=Helvetica;fontSize=12;fontColor=#000000;fillColor=#99CCFF;" parent="1" vertex="1">
                    <mxGeometry x="600" y="-37.5" width="270" height="45" as="geometry"/>
                </mxCell>
                <mxCell id="82" value="Second section expanded" style="rounded=0;whiteSpace=wrap;html=1;fontFamily=Helvetica;fontSize=12;fontColor=#000000;fillColor=#99CCFF;" parent="1" vertex="1">
                    <mxGeometry x="600" y="22.5" width="270" height="45" as="geometry"/>
                </mxCell>
                <mxCell id="83" value="How would a user discribe using this ap step by step" style="rounded=1;whiteSpace=wrap;html=1;fontFamily=Helvetica;fontSize=12;fontColor=#000000;fillColor=#99CCFF;" parent="1" vertex="1">
                    <mxGeometry x="550" y="-350" width="370" height="60" as="geometry"/>
                </mxCell>
                <mxCell id="88" style="edgeStyle=none;html=1;exitX=1;exitY=0.5;exitDx=0;exitDy=0;fontFamily=Helvetica;fontSize=12;fontColor=#000000;" parent="1" source="84" target="86" edge="1">
                    <mxGeometry relative="1" as="geometry"/>
                </mxCell>
                <mxCell id="84" value="User sees somthing on the screen change" style="rounded=0;whiteSpace=wrap;html=1;fontFamily=Helvetica;fontSize=12;fontColor=#000000;fillColor=#99CCFF;" parent="1" vertex="1">
                    <mxGeometry x="1370" y="-530" width="270" height="45" as="geometry"/>
                </mxCell>
                <mxCell id="89" value="" style="edgeStyle=none;html=1;fontFamily=Helvetica;fontSize=12;fontColor=#000000;" parent="1" source="85" target="87" edge="1">
                    <mxGeometry relative="1" as="geometry"/>
                </mxCell>
                <mxCell id="85" value="User committed some action" style="rounded=0;whiteSpace=wrap;html=1;fontFamily=Helvetica;fontSize=12;fontColor=#000000;fillColor=#99CCFF;" parent="1" vertex="1">
                    <mxGeometry x="1370" y="-472.5" width="270" height="45" as="geometry"/>
                </mxCell>
                <mxCell id="86" value="We probably need &lt;b&gt;state&lt;/b&gt; to implements this step" style="rounded=0;whiteSpace=wrap;html=1;fontFamily=Helvetica;fontSize=12;fontColor=#000000;fillColor=#99CCFF;" parent="1" vertex="1">
                    <mxGeometry x="1700" y="-530" width="270" height="45" as="geometry"/>
                </mxCell>
                <mxCell id="87" value="We probably need &lt;b&gt;event handler&lt;/b&gt; to implements this step" style="rounded=0;whiteSpace=wrap;html=1;fontFamily=Helvetica;fontSize=12;fontColor=#ffffff;fillColor=#006633;strokeColor=#2D7600;" parent="1" vertex="1">
                    <mxGeometry x="1700" y="-470" width="270" height="45" as="geometry"/>
                </mxCell>
                <mxCell id="94" value="Combine Steps, Rewrite discriptions" style="rounded=1;whiteSpace=wrap;html=1;fontFamily=Helvetica;fontSize=12;fontColor=#000000;fillColor=#99CCFF;" parent="1" vertex="1">
                    <mxGeometry x="1040" y="-350" width="370" height="60" as="geometry"/>
                </mxCell>
                <mxCell id="95" value="Clicked on third section" style="rounded=0;whiteSpace=wrap;html=1;fontFamily=Helvetica;fontSize=12;fontColor=#000000;fillColor=#99CCFF;" parent="1" vertex="1">
                    <mxGeometry x="1005" y="-270" width="270" height="45" as="geometry"/>
                </mxCell>
                <mxCell id="96" value="First section collapsed" style="rounded=0;whiteSpace=wrap;html=1;fontFamily=Helvetica;fontSize=12;fontColor=#000000;fillColor=#99CCFF;" parent="1" vertex="1">
                    <mxGeometry x="1005" y="-30" width="270" height="45" as="geometry"/>
                </mxCell>
                <mxCell id="97" value="Third section expanded" style="rounded=0;whiteSpace=wrap;html=1;fontFamily=Helvetica;fontSize=12;fontColor=#000000;fillColor=#99CCFF;" parent="1" vertex="1">
                    <mxGeometry x="1005" y="30" width="270" height="45" as="geometry"/>
                </mxCell>
                <mxCell id="98" value="Clicked on second section" style="rounded=0;whiteSpace=wrap;html=1;fontFamily=Helvetica;fontSize=12;fontColor=#000000;fillColor=#99CCFF;" parent="1" vertex="1">
                    <mxGeometry x="1005" y="-210" width="270" height="45" as="geometry"/>
                </mxCell>
                <mxCell id="99" value="Third section collapsed" style="rounded=0;whiteSpace=wrap;html=1;fontFamily=Helvetica;fontSize=12;fontColor=#000000;fillColor=#99CCFF;" parent="1" vertex="1">
                    <mxGeometry x="1005" y="-152.5" width="270" height="45" as="geometry"/>
                </mxCell>
                <mxCell id="100" value="Second section expanded" style="rounded=0;whiteSpace=wrap;html=1;fontFamily=Helvetica;fontSize=12;fontColor=#000000;fillColor=#99CCFF;" parent="1" vertex="1">
                    <mxGeometry x="1005" y="-92.5" width="270" height="45" as="geometry"/>
                </mxCell>
                <mxCell id="103" style="edgeStyle=none;html=1;exitX=1;exitY=0.5;exitDx=0;exitDy=0;fontFamily=Helvetica;fontSize=12;fontColor=#000000;" parent="1" target="104" edge="1">
                    <mxGeometry relative="1" as="geometry">
                        <mxPoint x="1275" y="-7.5" as="sourcePoint"/>
                    </mxGeometry>
                </mxCell>
                <mxCell id="104" value="We probably need &lt;b&gt;state&lt;/b&gt; to implements this step" style="rounded=0;whiteSpace=wrap;html=1;fontFamily=Helvetica;fontSize=12;fontColor=#000000;fillColor=#99CCFF;" parent="1" vertex="1">
                    <mxGeometry x="1335" y="-30" width="270" height="45" as="geometry"/>
                </mxCell>
                <mxCell id="105" style="edgeStyle=none;html=1;exitX=1;exitY=0.5;exitDx=0;exitDy=0;fontFamily=Helvetica;fontSize=12;fontColor=#000000;" parent="1" target="106" edge="1">
                    <mxGeometry relative="1" as="geometry">
                        <mxPoint x="1275" y="52.5" as="sourcePoint"/>
                    </mxGeometry>
                </mxCell>
                <mxCell id="106" value="We probably need &lt;b&gt;state&lt;/b&gt; to implements this step" style="rounded=0;whiteSpace=wrap;html=1;fontFamily=Helvetica;fontSize=12;fontColor=#000000;fillColor=#99CCFF;" parent="1" vertex="1">
                    <mxGeometry x="1335" y="30" width="270" height="45" as="geometry"/>
                </mxCell>
                <mxCell id="107" style="edgeStyle=none;html=1;exitX=1;exitY=0.5;exitDx=0;exitDy=0;fontFamily=Helvetica;fontSize=12;fontColor=#000000;" parent="1" target="108" edge="1">
                    <mxGeometry relative="1" as="geometry">
                        <mxPoint x="1275" y="-130" as="sourcePoint"/>
                    </mxGeometry>
                </mxCell>
                <mxCell id="108" value="We probably need &lt;b&gt;state&lt;/b&gt; to implements this step" style="rounded=0;whiteSpace=wrap;html=1;fontFamily=Helvetica;fontSize=12;fontColor=#000000;fillColor=#99CCFF;" parent="1" vertex="1">
                    <mxGeometry x="1335" y="-152.5" width="270" height="45" as="geometry"/>
                </mxCell>
                <mxCell id="109" style="edgeStyle=none;html=1;exitX=1;exitY=0.5;exitDx=0;exitDy=0;fontFamily=Helvetica;fontSize=12;fontColor=#000000;" parent="1" target="110" edge="1">
                    <mxGeometry relative="1" as="geometry">
                        <mxPoint x="1275" y="-70" as="sourcePoint"/>
                    </mxGeometry>
                </mxCell>
                <mxCell id="110" value="We probably need &lt;b&gt;state&lt;/b&gt; to implements this step" style="rounded=0;whiteSpace=wrap;html=1;fontFamily=Helvetica;fontSize=12;fontColor=#000000;fillColor=#99CCFF;" parent="1" vertex="1">
                    <mxGeometry x="1335" y="-92.5" width="270" height="45" as="geometry"/>
                </mxCell>
                <mxCell id="111" value="" style="edgeStyle=none;html=1;fontFamily=Helvetica;fontSize=12;fontColor=#000000;" parent="1" target="112" edge="1">
                    <mxGeometry relative="1" as="geometry">
                        <mxPoint x="1275" y="-248.97727272727275" as="sourcePoint"/>
                    </mxGeometry>
                </mxCell>
                <mxCell id="112" value="We probably need &lt;b&gt;event handler&lt;/b&gt; to implements this step" style="rounded=0;whiteSpace=wrap;html=1;fontFamily=Helvetica;fontSize=12;fontColor=#000000;fillColor=#006633;" parent="1" vertex="1">
                    <mxGeometry x="1335" y="-270" width="270" height="45" as="geometry"/>
                </mxCell>
                <mxCell id="113" value="" style="edgeStyle=none;html=1;fontFamily=Helvetica;fontSize=12;fontColor=#000000;" parent="1" target="114" edge="1">
                    <mxGeometry relative="1" as="geometry">
                        <mxPoint x="1275" y="-188.97727272727275" as="sourcePoint"/>
                    </mxGeometry>
                </mxCell>
                <mxCell id="114" value="We probably need &lt;b&gt;event handler&lt;/b&gt; to implements this step" style="rounded=0;whiteSpace=wrap;html=1;fontFamily=Helvetica;fontSize=12;fontColor=#000000;fillColor=#006633;" parent="1" vertex="1">
                    <mxGeometry x="1335" y="-210" width="270" height="45" as="geometry"/>
                </mxCell>
                <mxCell id="115" value="Remove dupplicates" style="rounded=1;whiteSpace=wrap;html=1;fontFamily=Helvetica;fontSize=12;fontColor=#000000;fillColor=#99CCFF;" parent="1" vertex="1">
                    <mxGeometry x="1820" y="-360" width="370" height="60" as="geometry"/>
                </mxCell>
                <mxCell id="116" value="Clicked on third section" style="rounded=0;whiteSpace=wrap;html=1;fontFamily=Helvetica;fontSize=12;fontColor=#000000;fillColor=#99CCFF;" parent="1" vertex="1">
                    <mxGeometry x="1700" y="-270" width="270" height="45" as="geometry"/>
                </mxCell>
                <mxCell id="117" value="" style="edgeStyle=none;html=1;fontFamily=Helvetica;fontSize=12;fontColor=#000000;" parent="1" target="118" edge="1">
                    <mxGeometry relative="1" as="geometry">
                        <mxPoint x="1970" y="-248.97727272727275" as="sourcePoint"/>
                    </mxGeometry>
                </mxCell>
                <mxCell id="118" value="We probably need &lt;b&gt;event handler&lt;/b&gt; to implements this step" style="rounded=0;whiteSpace=wrap;html=1;fontFamily=Helvetica;fontSize=12;fontColor=#000000;fillColor=#006633;" parent="1" vertex="1">
                    <mxGeometry x="2030" y="-270" width="270" height="45" as="geometry"/>
                </mxCell>
                <mxCell id="119" value="Third section collapsed" style="rounded=0;whiteSpace=wrap;html=1;fontFamily=Helvetica;fontSize=12;fontColor=#000000;fillColor=#99CCFF;" parent="1" vertex="1">
                    <mxGeometry x="1700" y="-210" width="270" height="45" as="geometry"/>
                </mxCell>
                <mxCell id="120" style="edgeStyle=none;html=1;exitX=1;exitY=0.5;exitDx=0;exitDy=0;fontFamily=Helvetica;fontSize=12;fontColor=#000000;" parent="1" target="121" edge="1">
                    <mxGeometry relative="1" as="geometry">
                        <mxPoint x="1970" y="-187.5" as="sourcePoint"/>
                    </mxGeometry>
                </mxCell>
                <mxCell id="121" value="We probably need &lt;b&gt;state&lt;/b&gt; to implements this step" style="rounded=0;whiteSpace=wrap;html=1;fontFamily=Helvetica;fontSize=12;fontColor=#000000;fillColor=#99CCFF;" parent="1" vertex="1">
                    <mxGeometry x="2030" y="-210" width="270" height="45" as="geometry"/>
                </mxCell>
                <mxCell id="122" value="Rewrite discriptions" style="rounded=1;whiteSpace=wrap;html=1;fontFamily=Helvetica;fontSize=12;fontColor=#000000;fillColor=#99CCFF;" parent="1" vertex="1">
                    <mxGeometry x="2500" y="-360" width="370" height="60" as="geometry"/>
                </mxCell>
                <mxCell id="123" value="Clicked on a section header" style="rounded=0;whiteSpace=wrap;html=1;fontFamily=Helvetica;fontSize=12;fontColor=#000000;fillColor=#99CCFF;" parent="1" vertex="1">
                    <mxGeometry x="2375" y="-272.5" width="270" height="45" as="geometry"/>
                </mxCell>
                <mxCell id="124" value="" style="edgeStyle=none;html=1;fontFamily=Helvetica;fontSize=12;fontColor=#000000;" parent="1" target="125" edge="1">
                    <mxGeometry relative="1" as="geometry">
                        <mxPoint x="2645" y="-251.47727272727275" as="sourcePoint"/>
                    </mxGeometry>
                </mxCell>
                <mxCell id="125" value="Event Handler" style="rounded=0;whiteSpace=wrap;html=1;fontFamily=Helvetica;fontSize=12;fontColor=#000000;fillColor=#006633;" parent="1" vertex="1">
                    <mxGeometry x="2710" y="-272.5" width="265" height="44.17" as="geometry"/>
                </mxCell>
                <mxCell id="126" value="One section expanded, all others collapsed" style="rounded=0;whiteSpace=wrap;html=1;fontFamily=Helvetica;fontSize=12;fontColor=#000000;fillColor=#99CCFF;" parent="1" vertex="1">
                    <mxGeometry x="2375" y="-212.5" width="270" height="45" as="geometry"/>
                </mxCell>
                <mxCell id="127" style="edgeStyle=none;html=1;exitX=1;exitY=0.5;exitDx=0;exitDy=0;fontFamily=Helvetica;fontSize=12;fontColor=#000000;" parent="1" target="128" edge="1">
                    <mxGeometry relative="1" as="geometry">
                        <mxPoint x="2645" y="-190" as="sourcePoint"/>
                    </mxGeometry>
                </mxCell>
                <mxCell id="128" value="State" style="rounded=0;whiteSpace=wrap;html=1;fontFamily=Helvetica;fontSize=12;fontColor=#000000;fillColor=#99CCFF;" parent="1" vertex="1">
                    <mxGeometry x="2705" y="-212.5" width="270" height="45" as="geometry"/>
                </mxCell>
                <mxCell id="131" value="Type of state" style="text;html=1;strokeColor=none;fillColor=none;align=center;verticalAlign=middle;whiteSpace=wrap;rounded=0;fontFamily=Helvetica;fontSize=21;fontColor=#FFFFFF;" parent="1" vertex="1">
                    <mxGeometry x="790" y="480" width="170" height="30" as="geometry"/>
                </mxCell>
                <mxCell id="132" value="&lt;font color=&quot;#000000&quot;&gt;number&lt;/font&gt;" style="rounded=0;whiteSpace=wrap;html=1;fontFamily=Helvetica;fontSize=12;fontColor=#FFFFFF;fillColor=#FFFF99;" parent="1" vertex="1">
                    <mxGeometry x="670" y="530" width="120" height="30" as="geometry"/>
                </mxCell>
                <mxCell id="133" value="&lt;font color=&quot;#000000&quot;&gt;boolean&lt;/font&gt;" style="rounded=0;whiteSpace=wrap;html=1;fontFamily=Helvetica;fontSize=12;fontColor=#FFFFFF;fillColor=#FFFF99;" parent="1" vertex="1">
                    <mxGeometry x="810" y="530" width="120" height="30" as="geometry"/>
                </mxCell>
                <mxCell id="134" value="&lt;font color=&quot;#000000&quot;&gt;string&lt;/font&gt;" style="rounded=0;whiteSpace=wrap;html=1;fontFamily=Helvetica;fontSize=12;fontColor=#FFFFFF;fillColor=#FFFF99;" parent="1" vertex="1">
                    <mxGeometry x="950" y="530" width="120" height="30" as="geometry"/>
                </mxCell>
                <mxCell id="135" value="&lt;font color=&quot;#000000&quot;&gt;array&lt;/font&gt;" style="rounded=0;whiteSpace=wrap;html=1;fontFamily=Helvetica;fontSize=12;fontColor=#FFFFFF;fillColor=#FFFF99;" parent="1" vertex="1">
                    <mxGeometry x="730" y="570" width="120" height="30" as="geometry"/>
                </mxCell>
                <mxCell id="136" value="&lt;font color=&quot;#000000&quot;&gt;object&lt;/font&gt;" style="rounded=0;whiteSpace=wrap;html=1;fontFamily=Helvetica;fontSize=12;fontColor=#FFFFFF;fillColor=#FFFF99;" parent="1" vertex="1">
                    <mxGeometry x="870" y="570" width="120" height="30" as="geometry"/>
                </mxCell>
                <mxCell id="140" style="edgeStyle=none;html=1;entryX=0;entryY=0.5;entryDx=0;entryDy=0;fontFamily=Helvetica;fontSize=12;fontColor=#000000;" parent="1" source="138" target="139" edge="1">
                    <mxGeometry relative="1" as="geometry"/>
                </mxCell>
                <mxCell id="138" value="&lt;font color=&quot;#000000&quot;&gt;One text sections is visible&lt;/font&gt;" style="rounded=0;whiteSpace=wrap;html=1;fontFamily=Helvetica;fontSize=12;fontColor=#FFFFFF;fillColor=#FFFF99;" parent="1" vertex="1">
                    <mxGeometry x="590" y="640" width="180" height="30" as="geometry"/>
                </mxCell>
                <mxCell id="144" value="" style="edgeStyle=none;html=1;fontFamily=Helvetica;fontSize=12;fontColor=#000000;" parent="1" source="139" target="142" edge="1">
                    <mxGeometry relative="1" as="geometry"/>
                </mxCell>
                <mxCell id="139" value="&lt;font color=&quot;#000000&quot;&gt;State&lt;/font&gt;" style="rounded=0;whiteSpace=wrap;html=1;fontFamily=Helvetica;fontSize=12;fontColor=#FFFFFF;fillColor=#99CCFF;" parent="1" vertex="1">
                    <mxGeometry x="820" y="640" width="80" height="30" as="geometry"/>
                </mxCell>
                <mxCell id="142" value="&lt;font color=&quot;#000000&quot;&gt;number? boolean? string?&lt;/font&gt;" style="rounded=0;whiteSpace=wrap;html=1;fontFamily=Helvetica;fontSize=12;fontColor=#FFFFFF;fillColor=#99CCFF;" parent="1" vertex="1">
                    <mxGeometry x="940" y="640" width="180" height="30" as="geometry"/>
                </mxCell>
                <mxCell id="145" value="&lt;font color=&quot;#000000&quot;&gt;Ideally, avoid arrays/objects&lt;/font&gt;" style="rounded=0;whiteSpace=wrap;html=1;fontFamily=Helvetica;fontSize=12;fontColor=#FFFFFF;fillColor=#FFFF99;" parent="1" vertex="1">
                    <mxGeometry x="770" y="720" width="180" height="30" as="geometry"/>
                </mxCell>
                <mxCell id="147" value="" style="whiteSpace=wrap;html=1;aspect=fixed;strokeColor=#FFFF99;fontFamily=Helvetica;fontSize=21;fontColor=#000000;fillColor=#99CCFF;" parent="1" vertex="1">
                    <mxGeometry x="1235" y="500" width="280" height="280" as="geometry"/>
                </mxCell>
                <mxCell id="148" value="4, 5, 6. Replace remaining elements with text descriptions" style="text;html=1;strokeColor=none;fillColor=none;align=center;verticalAlign=middle;whiteSpace=wrap;rounded=0;fontFamily=Helvetica;fontSize=21;fontColor=#FFFFFF;" parent="1" vertex="1">
                    <mxGeometry x="1270" y="450" width="540" height="30" as="geometry"/>
                </mxCell>
                <mxCell id="150" value="expanded" style="text;html=1;strokeColor=none;fillColor=none;align=center;verticalAlign=middle;whiteSpace=wrap;rounded=0;fontFamily=Helvetica;fontSize=21;fontColor=#000000;" parent="1" vertex="1">
                    <mxGeometry x="1260" y="570" width="110" height="30" as="geometry"/>
                </mxCell>
                <mxCell id="151" value="collapsed" style="text;html=1;strokeColor=none;fillColor=none;align=center;verticalAlign=middle;whiteSpace=wrap;rounded=0;fontFamily=Helvetica;fontSize=21;fontColor=#000000;" parent="1" vertex="1">
                    <mxGeometry x="1260" y="650" width="110" height="30" as="geometry"/>
                </mxCell>
                <mxCell id="152" value="collapsed" style="text;html=1;strokeColor=none;fillColor=none;align=center;verticalAlign=middle;whiteSpace=wrap;rounded=0;fontFamily=Helvetica;fontSize=21;fontColor=#000000;" parent="1" vertex="1">
                    <mxGeometry x="1260" y="680" width="110" height="30" as="geometry"/>
                </mxCell>
                <mxCell id="153" value="" style="whiteSpace=wrap;html=1;aspect=fixed;strokeColor=#FFFF99;fontFamily=Helvetica;fontSize=21;fontColor=#000000;fillColor=#99CCFF;" parent="1" vertex="1">
                    <mxGeometry x="1550" y="500" width="280" height="280" as="geometry"/>
                </mxCell>
                <mxCell id="154" value="expanded" style="text;html=1;strokeColor=none;fillColor=none;align=center;verticalAlign=middle;whiteSpace=wrap;rounded=0;fontFamily=Helvetica;fontSize=21;fontColor=#000000;" parent="1" vertex="1">
                    <mxGeometry x="1575" y="680" width="110" height="30" as="geometry"/>
                </mxCell>
                <mxCell id="155" value="collapsed" style="text;html=1;strokeColor=none;fillColor=none;align=center;verticalAlign=middle;whiteSpace=wrap;rounded=0;fontFamily=Helvetica;fontSize=21;fontColor=#000000;" parent="1" vertex="1">
                    <mxGeometry x="1575" y="550" width="110" height="30" as="geometry"/>
                </mxCell>
                <mxCell id="156" value="collapsed" style="text;html=1;strokeColor=none;fillColor=none;align=center;verticalAlign=middle;whiteSpace=wrap;rounded=0;fontFamily=Helvetica;fontSize=21;fontColor=#000000;" parent="1" vertex="1">
                    <mxGeometry x="1575" y="580" width="110" height="30" as="geometry"/>
                </mxCell>
                <mxCell id="159" value="&lt;font color=&quot;#000000&quot; style=&quot;font-size: 20px;&quot;&gt;What type would this argument have to be to give us these output?&lt;/font&gt;" style="rounded=0;whiteSpace=wrap;html=1;fontFamily=Helvetica;fontSize=20;fontColor=#FFFFFF;fillColor=#99CCFF;" parent="1" vertex="1">
                    <mxGeometry x="2480" y="450" width="347" height="70" as="geometry"/>
                </mxCell>
                <mxCell id="160" value="" style="shape=image;verticalLabelPosition=bottom;labelBackgroundColor=default;verticalAlign=top;aspect=fixed;imageAspect=0;image=data:image/png,iVBORw0KGgoAAAANSUhEUgAAAkoAAABjCAYAAABkHy9OAAABW2lDQ1BJQ0MgUHJvZmlsZQAAKJF1kL9LQgEQxz+mIYRoQ0RDhFA0WZgWtPojInAQS8iank/TyB+PpxFBREPtQi1tYUvQXktD/0FR0BARDUF/QORS8rqnlVp0x/H98OXuOA66HIqm5WxAvlDWY7NB92JiyW1/wcoQTslhRS1pgWg0Ii18a2fU7rCYejtm7ko8h5225a1YcnvNpdyc1v72d0RPKl1SRT+kfKqml8HiFY5ulDWTd4T7dDlK+MDkTJNPTE42+aLRsxALCV8L96pZJSX8JOxJtvmZNs7n1tWvG8zrHelCfF60X2qQMDNEJN3E8THFBNPi8c/MZGMmRBGNTXRWyZClLNMBcTRypIXnKKAyjkfYh1fKb/769w9bXrEK029grbS85CGc78HAfcsbOQLXLpxdaYqu/HzWUrOVVvy+JjuC0P1oGK+jYN+HesUw3quGUT+W/Q9wWfgEsWNjXgPMOCcAAABiZVhJZk1NACoAAAAIAAIBEgADAAAAAQABAACHaQAEAAAAAQAAACYAAAAAAAOShgAHAAAAEgAAAFCgAgAEAAAAAQAAAkqgAwAEAAAAAQAAAGMAAAAAQVNDSUkAAABTY3JlZW5zaG905fjBiwAAAjxpVFh0WE1MOmNvbS5hZG9iZS54bXAAAAAAADx4OnhtcG1ldGEgeG1sbnM6eD0iYWRvYmU6bnM6bWV0YS8iIHg6eG1wdGs9IlhNUCBDb3JlIDYuMC4wIj4KICAgPHJkZjpSREYgeG1sbnM6cmRmPSJodHRwOi8vd3d3LnczLm9yZy8xOTk5LzAyLzIyLXJkZi1zeW50YXgtbnMjIj4KICAgICAgPHJkZjpEZXNjcmlwdGlvbiByZGY6YWJvdXQ9IiIKICAgICAgICAgICAgeG1sbnM6ZXhpZj0iaHR0cDovL25zLmFkb2JlLmNvbS9leGlmLzEuMC8iCiAgICAgICAgICAgIHhtbG5zOnRpZmY9Imh0dHA6Ly9ucy5hZG9iZS5jb20vdGlmZi8xLjAvIj4KICAgICAgICAgPGV4aWY6UGl4ZWxZRGltZW5zaW9uPjk5PC9leGlmOlBpeGVsWURpbWVuc2lvbj4KICAgICAgICAgPGV4aWY6VXNlckNvbW1lbnQ+U2NyZWVuc2hvdDwvZXhpZjpVc2VyQ29tbWVudD4KICAgICAgICAgPGV4aWY6UGl4ZWxYRGltZW5zaW9uPjU4NjwvZXhpZjpQaXhlbFhEaW1lbnNpb24+CiAgICAgICAgIDx0aWZmOk9yaWVudGF0aW9uPjE8L3RpZmY6T3JpZW50YXRpb24+CiAgICAgIDwvcmRmOkRlc2NyaXB0aW9uPgogICA8L3JkZjpSREY+CjwveDp4bXBtZXRhPgptXtHuAAA7nElEQVR4Ae1dB3wVVfY+6b33RhoEAoSOAtLEilIEpAi4uAq2/2J3dcW+trWtZe2CoCgqKIIgVqQXKUIgtEAKgfTee/73u8O8N+/lvZAHL4HEc36/l5lb5pbvzsz95pxzb2zCw8ObiIURYAQYAUaAEWAEGAFGoBkCts1iOIIRYAQYAUaAEWAEGAFGQCLARIlvBEaAEWAEGAFGgBFgBMwgwETJDDAczQgwAowAI8AIMAKMABMlvgcYAUaAEWAEGAFGgBEwgwATJTPAcDQjwAgwAowAI8AIMAJMlPgeYAQYAUaAEWAEGAFGwAwCTJTMAMPRjAAjwAgwAowAI8AIMFHie4ARYAQYAUaAEWAEGAEzCDBRMgMMRzMCjAAjwAgwAowAI8BEie8BRoARYAQYAUaAEWAEzCDARMkMMBzNCDACjAAjwAgwAowAEyW+BxgBRoARYAQYAUaAETCDABMlM8BwNCPACDACjAAjwAgwAkyU+B5gBBgBRoARYAQYAUbADAJMlMwAw9GMACPACDACjAAjwAgwUeJ7gBFgBBgBRoARYAQYATMIMFEyAwxHMwKMACPACDACjAAjwESpA94DDn7h5Nylt/w5hcZ1wB78dZocGOhNTk4Obd7hz/+dT2v+m2u2HjsHR/IMDCMbWzuzeTjhr43A+JGVdHjFaYoKrf9rA8G9ZwSMELA3CnfaoIOHP7lH9KaS4zuosba6Q/cz/M53ySWmv+xDU30dHb4jxmR/nCMTyME3hMr+/NlkekeK/Pjje0wSjuXLt9Dq1TvbtSsODvY0btxg2rv3BKWnmycnEREBtGjRvfTNN9vo/fd/aLM2do+so5EDqundFR5m6xh28/005Kb/oyV3jaXc40kG+UCi+o2bTWl7N1NBerJBWmcIxA4PIQdnOzry6ymrdcfGhiiohw+FJviSq5cTlWRXUlZSIeWnlOrqcPZ0pKhLAsk7zI1IXJBzpIgyDxRSTUWdLo93qBt1GRRA7gEuMj77UJEsp7GhSZenLU6CuntTSC9fOrg2neprGmQV67a50FsPFtHL9xTRtEcD2qJaLpMR6JAI/GU0Sp7RAyny+ofIyTusQw6UttFpL06mw3d1o4pDm7XRzc4DJt5P4Xd/0Cy+I0Z06RJAAQFeZG9vZ/Czs2v/W9jDw4Xuvvt6uuGGoS1CWV1dQ0VF5XTypHky1WIBrUzExFYv5rrXP/c0e0VxVjpVFOVTdWlxszzOHt405u6naeANtzZL6+gRLt5OkqxUl+nJiTX65OThSL3GdhH8x4byU0slGep7QzS5+zvriu82MpRASEpzKgXutRQzLJjir4nQpeOk7yTlmsL0MrJ3tKMeV4ZTWF9/gzzWDqDN3a8IIzsHWx1JQh319Tb04w5nGtK7hsICFPJk7bq5PEagIyLQLholJ58wgkanOi+F6qvKjHCyIeeASLK1d6KqnBPU1KhX+9rY2ZONnYPQAFWRvZs32bt4UnX+SaPrlaCtvSO5hsaL8ktEPekiUvkis7EVZdg7yPKR087JhWwdXeRFKNcSQTk2op2N1eWyDJfYAVRz+ijVl+YbFAPTmIN/OFWnHaDGmgqDNBkQLyqXaKERamqk6lOHqamuRpcHdUCgKVLFxsGJqKFBh43EqLbeII+aF0cbR2dhYlGwQ9jW2R0HUWiT6fYoqVb/C1Lj7OxIIDPduoXSnj3Hyc/Pg3x83Ck5OVPWB7MUNDTl5YZjgXhcV1mpxyY7u4huueW/Jtvp6KjcyrUCF1VQRkNDo5gAlJe+u7sL1dbWiXAj9e8fQ4cOnaSqqlo1u8ERefv0iaLS0kpKSjopoGuSk6KbmzOBKEGcnR0I+SDV1bW6ehBG34uKKmjmzFdkGxBnLGhf377RVFxcQceOnTZIdnFxlPWh/3FxYbId6L+xeLk30oAetbRxrzPV1Ao1hwmxtbenpF9WyF9jvR4fGxtbcnLzIGcPL3mVvbMLObsr57XVFaTNiwy+EbHyl7F/u9B+6J9jR1d3ahL3Z3D3voIUnKLS3EyK6DuETiftpoY6Q3xRZ9TAEdTY2ECZSXuorsZw3E00/7yiYoYGieemiTL+zGtWDkiMi7cjpe20nMjWVdfTH0uPUVmu0v60P3LpsrnxFN7PX6e5St+VS0nr0knVDiWMj6LAbl5Cu2VPuB6y/7tUKj6tvCPEa4FG3NWLugz0p4y9zdvbrANGEa3tT3C8t2xDyla8Jw3l2Y+8adzwKnpibjHd+aKfYaII2draivteIYOVlZXN0jmCEeiMCLQpUfKKGya1OCAxqmRv/5KytyyVQffw3hRz4zNkCyIAEZPRyR/foMKDv8lg2OVzyb//OCpN2U2eMYNkXE1RFp1Y/jjVluTIMAhB3M2vk0tgjAzjDwhQ4ptTZTj4spkUNGSaLq3rjJd050nvzaG68gJd+GwnYfPeJs+BY6ngl4Xkd/U8XfbUf19PVWmJ5BTSlSIf/prsvfRq6/w1b1Puypd1eUPnvExew6dKIiMjBVk68eRVVJN5TAZjn/2NQIySH75Ud038+8epaOPnlPXpo7q4lk6i/7VS+i+peXq8c1ieguAd+b94NbrNj9OnjxDE5kodyQAh8PJylQRg586j9Pjjn9FDD02m0aMT6L77PhKERP/iXr78X/K6iRP/3ap2fvbZg5KcTJnygi7/mjVP0dath+nppz+XcStXLqDMzAIKCfGVbQD5+fHHPfT669/prgHxeeWVW6lr1xBdXF1dPaHc7t3DZZqacOWV/Qg/yOefb6DFi3+V51FRQfTRR/PlOf6YMr3ddtvVBHzwdQ+pqamjRx9dTAcPKhgsXny/JJmNjY06Mnb8eJbQZL0rcZEXiT/D+ihEcudB/TOmpuE4at5jdMm0O3VRWtMbyMz0V77UpfW6cjLhB9n++Vu0ZfGr8jw4rg9N+88X5OSu11glrltGP73+iEy/++s95CDIueiMDFcU5pGbb4AkSV/cN5myjyXK+EnPLqTYIVeIbGe0gAL/pfdMpKwj+2S6tf84uTlQcLwPndyTRw21jbJ4O0db3Tm0P17CLKYSJW3a2dqC8lSShLxuvso7TGtWgyZJFYyzqyBlIG31tXptjUqSkM/RVXwcCIJdVWRILtUyTB21bW5tf2IuC6aKgmoqOlXerMisfDuqE5qlhK76DzVtpqlTp9KsWbNk1IwZM8SHjL6P2nx8zgh0JgTajCg5eYdQ9IR/UaPQlmRv/ZyKDm8kr25DycHdV+KHl2XMlKeExsiesjYvofqKEgobM4+6XHufJEb1lSU6nF2CYilt1YvkEtyVgi6dSiEj/kbpa16R6SBBIElZmz8TBOtXcvQKJL+Eq3XX5v7xjah7A3l3H0HBw26itNUvUXWBopWqr2xuhtBdaO5EtNv3yr9TyfZvqXjbCvLod5V4+YkXn3CSjXr0W7J19aDcb1+myuQ/KGjqAvIfN58qjm6XZjL4DHmPvInKkzZR9tIFsu8+o2aJr3HTLyVzTThbfMZbt5KtiweF3Cww6zqAUp66Rl7SWNP6l9rixYvJ11cZK+P6GoT2YNKkScbRZsPffbdDak5iYoJp7dpdgoSE0iWXxMn8ixb9IonSnDlj6J///ETGDRrUjaBRWbdut0GZQUHetGTJ/bo4aIZuu+1NXbg1J6GhfrR5cxJt2XKI5s8fT2PHDqKFC3+mkhIFm+eeu1mSpBMnsgTx+U1oPhqlmc3Ozk5qoObPf588PV3p+ef/Rtu2HaZlyzbKarW+SqdO5dPDDy8ShMyHHnhgkiA2yiStti82NoRmzBgptWWoG9q2a64ZQM8+O5smT35ezUaurk7CbJdHb765WmimRst2jR9/iYFP1qB4ZVJNTDZNlHZ9/QGl7tpA/cb/jbqPvE58jOiKp8xDe2jp/Ank4ulLU55fTMe3/Uw7lv1PZlB9leD8Pf3Vr4QGwoX2rvxE+jGNvn0B9RkrnqXdm+joprUyf21VBf38xr9o3GNviwnfjda8MJ/G/est6j/xFlr3ygMU0WcIdR16FeUkH6B1rz4kCIEDDZoyV5Ap6977+t4RRQr/IAg0O6oMmtFNEpVDP+o10/bCfyluFMxkPrTp3YPUIO4rS8QzyJVgdqsqqaWTu0xrgnqPi5R+SEnrhHZSkCVjQRsGzewqPqCIkjRtM85nHLa0P/4xnkKD6EgHvk8zLkoXLiq1pQAfPZnTJRid4JlgYQT+Cgi0GVEKGjpDfmFm/Pw/SVQAJkiLKm7hvaT5CgQqZ8dyGW3r5ErQIvn2vtIgb+bvC6n42Fb5Cxw0iZz9I9VipEkOgbL0fVI7BA1RxWlFg4L4BmH6wq8uNB9BgkbKnPlOZmjFn/zv36K81f+VOVU/Ic8BY8nO3YdKd31PZXvXybTsZU9T9IJVgljdKomSvUiHVKcnUm1umjzP/vIZebTmnzrRRxK/BmGGhKjaKkvq+Oqrryg4ONjkJWVlerOLyQxGkV9/vVmapkCUvvpqM40Z00doZ8II5rKsrEKCSalPn2ip1gcxmTVrtCzhk08UDY1aHExxTk56QmBjY/kkW15eLQjJMllk796RBOLRrVsY7d6dLNvTq1cXYQaspjvvfEetlv74Q9H2IeLIkVOCQHrItMJCoaETYWOBqW/fvhQqKFA0izoNypmM0CRBQJJUR3SQJRAo/EDSVHnggY8kicvLK6U33pgncVPTcIyPVjDYd0yPiza9sqSATu7bRpEDlDpJUfrILPW1NVKb4+arEApogoy1OwnXTidHFzdZRtKvyvO7/t2n6cYXP6NBN87TEaX89GN0+PdVNPbh16gw44Q8v+bBl8kjQNHMQcMEyT1xiPJSlOdzzYv3yLi2+AN/n/C+fpQlnKNrK/XmxsRVqRQ3OoyG3RpPNcJvCQRlxO29qLKomvauOGExSYJGp/+NMcKU1kC7v0g2eX3k4EBpckvemEnZh5ubT9H/hHFRksDsXnZctEXRErYGF0v7Eyu0SdB65SYr7wZTdeQU2lGgr2milJmZSTk5ija/rg1Jrql2cRwjcKEQaDOi5OzfRfapJHmbyb45+0XI+LK0P3XpZal7iARRcvYN18XhpOTEDl0YWiD4M6mSv2c1+fW5huJmv0bQQoEwZW5YZJFJTS2rtUdokowF2iKI5+Dx8qdNdwyMksFy4XzdUF5E/tf9g3yv+DtVpe6n3G9eoqoUPQba6y7k+bp1CtmzRhsqKqp1vkA4hz8PBGauwsIy+vbbbVJrM3HipfT9938QyAo0KXCE1kpmZqFZHyVtvpbOtSQkOfm0zAoNEQSmNcjBg2ny2FZ/YPqDQLOlSmJiWjOiBP8kVdOlmiVdXPT3Pq7NLVLMWOGBDVRSrpyrZVrjGNKjryymS79hdPM7awyK9AwI1YXra6rleWNDvSANVfIcfksOTsIkJ+ToxrV0zQMvE4hXzysmUUHGcdr44QuUtmeTTLf2nwjh52Nja0OpO7INiobWZ78gSxH9/Snu8jCZlne8hBJXpxnka23AJ9yd7J3s6M8VKVRbpSdk2utDe/tSeX61NAFq49VzOFX7dnGnk7vzqCSrQo1u1dGS/niJFXZYXXf4l4wWy/ZwFX59pnmSuGc3y1+LBXAiI9DJEGgzoiTsDQpUZ/wWjHGDfwjE4Gv7TN4mrX1A5NEu54cZQ/XrwPXVhafowNvTKWDARPLpOYp84kcJM9twOiB8lBrrlQkZ+awmov66/OYvGtW8kv7qDOmvpK2vSW2H6POx+weQz+hZkky5dR8iNE6rCddUHN6qXGJkptE5YmsLbIfzJ554giIj9Zo7bZUVFRV07733aqNaPG8UpgZ1vJVzJbutmMggq1btpNtvv1asIhsi/Ywwvlj2b4mot5t6jepkrYbVI3yBVDG+Rm2j9v5S87bFUVuP/vzMcyMqVJ3QtXXDmVYre4440pQxldKhOynFQZtklXPVTLTqmTso48BOgzLrzxAig0gRUJ8FGa8+0+K+fntyAg2dOZ+6DR9LgdHxNPWlpbTq2Tvp2OYfjIs4r7CtnQ1FDQ6SS/Wrig3fAfAlihsTRiA40ChBI+Qb6SE0TD3osNg+oOikITk/W0McXZVXaHWZYT3a6xxc7KgkUzHtauPVc2xdAKkSK+MsFUv6g1V32AogK6moxWpgdisuU9rUYkZOZAT+IggYvnWt2Onq/HRZmnfcZSZLrSlUyIZHVH9dukfUAHleU6h86esSznICIpWz4ys6suhuytz4ifiStCOvrkMMrlL9gBzOmL8MEq0QgDkN4hzRkxrFyj7tT7uqDSvWCtcvobT/3EjHF1wur/EZOVMe8Ueu8PNWTCEIwwfKnNQKwoZVcrZObiazNIkVR+qqP5MZWohUSYOpLPWalVOm0i2Ng7lt9+7jBP+hadNGSIIAJ2tLBKvZ1NVouO6qqxQna0vKOHpUue8SEqJavExdWefr695iPnOJcCiHjBrVW5cFK+wgcNi2RHYcUDRMCV0tn2TVehqECQ6imsfUeByzjvwpg8E9+gkfnEKDn6Ur1rCKbuun/6XFt19NS+4W/lJC+o2/WR7VPwkJCcI3bLH8BQUFqdEWHcP6+Amtsw2lbDPUJqGQXtcJ8i+46LaFh4VZrpDK8qpo8/tJVJBWRn0nRgvfKcteiblCG/XHZ8ekf5K5Ru758gQd+e2UuWRhChMr6EQZ2WKfJUultf1x83OWWiuszlPJr6m68O3i6txE6dmmiZI1xsdUvRzHCFzMCLSZRil72zLpaxR+1f+Rk28EFR/ZSJ6xl5C9qxedXv8RlWckSd8hrIwLHj6bGoTZLOSy2XLlW+GBn1uNWeiov8sv2OKjWyQp8IkfKa+tyks1KKMqL02GQ4Vpz9bBWZrpyjMOijj9F7zBBRYGyvb9Qg1lBRQ49TFyDI6Vq9Sw+s338jnCb2mNcPxeTp6DxslVc0UblootBfLI9+p5spaqVP2qH2wXgF23g2c+K0xz+yh4+pNmW1IiTIC+Y+ZQxL2fUNH6T6lOEEytGU/xTbqewua+ScVbl1NDRbFButmCRcJzzz3XUrLV0z755BcaMqQ7eXu7yZVqllaQkZEvV7M9/vh04XSdQXPmXGFpEYTVbYmJqdJfauHCe2np0t8laZs792phGnyPYDaEYCsDbDsAp3P4U8GR++jRUwQ/Igj8jLAFQmCglwzDqRt5YXLEqrZlyzYJP62+dOutVwm/KAeRP5iio4PkFgApKc0nd1mImT/JJx3E178tXTusiv75luIDp80Kkxkcp33ComR0eK/B5ObtT6V5mbrNJavLS8QS9nqKGjSKhs66R8ZnHd0nSEQWHfxpOY256ymxcu4O8g2PoT3fLhR+R6E04IY50py2a8WH2urMnmNDy7iR19OfqxbLclEPJPvofoNrsIBAXUTg5eWl84cxyNRCAAqsaLElQGlWpcGqNPWS3V8mC02z4TPfUNdIR9efpuRNmc3S1OvMHYPivKm70FD98XkylQvSZUoGzogV7amifStTTCWTi5cjDZ7VjY5vzjJrnjN5oYhsbX9ihgZLgnRqX765omT8vEllQmMv/OdWmf4ION/xabFyTmQELlIE2owo1ZbmUsq3z1LU+EfE8vyp8gcMsAJOkSZKWfEUxU59joLh+C0Eq8fS1wpfozN7LbWk1VDKEIvNxFJ6bCGA1XAQaGSyt34hVrYpGis1X1WucK5N/EmSt6gJj8roQx/8nWoFYbGKCDtO6gs3UJf7PyOsZMMPAm1S4e9LlCqE+cFzsCBLl0xQ0sReSeWJ66ng54+UdPE3b+Vr5BLVV/owIbJ091pBsK7XpWtPQKQKfvpQmvLc7npPOIkfoJRnlS915CtY9x659Rgmr4fvVHtvDwAzGwTjqJq5lHMlHmRDFRAE+CSBYKjL7NU09djS/fDeez9QVFSg0NIkyN/+/alypZ16rXpU26SGcYRGS5UnnlhKL710C8XHR9Bjj02T0TDXGZvBsFrvlluuEL8rZR6QqiVLfpPnTz11kyRtapnDhsUTfmj/1Vc/QWlpOfTZZ+tp9uzLCSQMgv2cFiz4VL1E4qVipos0c/Ka2Gjy33cW05jB1bR+l+ITpGad9vIXBubtK/7xrEwqzT1NH8waqmajzYtepuG3PCR/iNy+9E3asuQ10Y5G+uL+KTT1xaXU7bJr5A/p0A7t/e7MfS3CTWcwlOOrnoujqr1AOZGCtEX2VzTMIGbQVm1a+BKK04lWi5SXZ/mziZVr2Kfo4NZ0XZnaEy1JKhFkqv7MtgHIo03TXtPSOcx88IVqSbDk30bkMycwu8oyzGcxd6lBm831x9nDgQLjvCh9d65YZai/100VeueUcsovtqXvNyl+e8Z5tAs8zmV8jMvjMCPQERCwCQ8PN/y8aoNWO3oGCE2SN8Gk1lDb3Fbv5BMiN3LUbhRpSTOwTxO0Vo11lXJVmyXXtkVeO1dPcgyKofqyfOHPdMqwCmEWdAqKFptCukhiY5ioD2HTysaqUqFpU7QU+pTOeYYNGr///knpvDxjxn/OuZP4tyHYJLKkxDKnWOMKsRkkNnqEQ7XWAdw43/mE0WcQMuwvlZFhOSnQ1n14eSadyrWjq/7v3MxV2rLMnbt6+VFAbDyVF+TotFHm8pqKh0k8qGsvQWRcKSNxh6ks9Oqrrwrc4+jAgQOCOC4wmaelyGG3CUIqCPr2T460lO0vlSZ3+xbmyE3vJVGdGYdzAHJZ3xr68oU8euhNH/rqZzeTGJ3v+JgslCMZgYscgXYhShc5Bty8C4gAnJPxf9OwTB8bNeJ/omGDRhbLEOgaXk8h/g20eZ/hqjjLSrnwuZcvXy7MkY5C0zZXmDItI4/QysAUBr8jbKjIoiDgF+0hNU9FGS07qmNLgITYOvrNSCupxfF8xkdbDp8zAh0JASZKHWm0OmFbsaniqlVPSLPUjh1H6cknl3bCXnKXWovA7Nmzxe7pmbR+/frWXsL52hEBddWl1lzdjtVzVYzABUGAidIFgZ0rZQQYAUaAEWAEGIGOgIBla2E7Qo+4jYwAI8AIMAKMACPACFgJASZKVgKSi2EEGAFGgBFgBBiBzocAE6XON6bcI0aAEWAEGAFGgBGwEgJMlKwEJBfDCDACjAAjwAgwAp0PASZKnW9MuUeMACPACDACjAAjYCUEmChZCUguhhFgBBgBRoARYAQ6HwJMlDrfmHKPGAFGgBFgBBgBRsBKCDBRshKQXAwjwAgwAowAI8AIdD4EmCh1vjHlHjECjAAjwAgwAoyAlRBgomQlILkYRoARYAQYAUaAEeh8CDBR6nxjyj1iBBgBRoARYAQYASshwETJSkByMYwAI8AIMAKMACPQ+RBgotT5xpR7xAgwAowAI8AIMAJWQoCJkpWA5GIYAUaAEWAEGAFGoPMhwESp840p94gRYAQYAUaAEWAErIQAEyUrAcnFMAKMACPACDACjEDnQ4CJUucbU+4RI8AIMAKMACPACFgJASZKVgKSi2EEGAFGgBFgBBiBzocAE6XON6bcI0aAEWAEGAFGgBGwEgJMlKwEJBfDCDACjAAjwAgwAp0PASZKnW9MuUeMACPACDACjAAjYCUEmChZCUguhhFgBBgBRoARYAQ6HwJMlDrfmHKPGAFGgBFgBBgBRsBKCDBRshKQXAwjwAgwAowAI8AIdD4EmCh1vjHlHjECjAAjwAgwAoyAlRBgomQlILkYRoARYAQYAUaAEeh8CDBR6nxjyj1iBBgBRoARYAQYASshYG+lcjp0MfaOThTcva+uD0Wn06iiMFcXttaJo6M9de8erivu9OkCKiws04Xb4sTWhmjnkixat82Fnnzfuy2qOO8yfSNiydXbT5bTUFdHWUf+PKcyX723iC7rW0NDbw0+p+svxouc3Bxo0MyuuqZtW3iEmhqbdGGcOLrak629LVWX1hrEWyuANtg7Kd9UjaLuquLm9bh4O5ItbjYh9TWNVFNRZ63q27wcG9FuRzd7qq2ob4ats4cjNTU1UU152/anres52/gAA1cxhqrUCCzqaxrU4EV/tHOwFfeoXbNxQr+c3B2oobaB6qrPvT9tPT4XCmBzuFnSnnN9fnqPiySvEFdZ1fFNWZRztNiSats1LxMlAXdg19500+srdMD/ufpT+vXtx3Vha5107RpKr78+V1fc6tU76e23v9eF2+LkvpmlFOzXQF//4tYWxVulzEnPfEwgS5DGhnp67doYk+VG9BlC3qGRdODHr0ymf/2rK02/uoLm3VBOH33nbjKPtSPxkkgQD3xhejmd2p9vsng3P2eKGx1KqdtzqDizwmQec5G29jaEl3RWUiEVnxbXiknbWPDC8Ql3pw3/OyAmhEbjZPIOc6OIAQHkGexCDXVNVJhWSie2Zovz5nmbXSwielwZTv6xnjIJ12x4+0CzbJfe3J3w0oXknyil/atSm+W5WCP8Yzypz4Qo2rHkKFUUVBs0c9htPai6rI62LTxsEG/twNnqCe3tS0E9vMnNx5lqK+spU9wPp/aZvt9Mte1s4+Ps6UhDbumhu/Tob6fN3s+6TBfRSbdRoRTS05d+fyvRoFXu/s50yew4Op1YQEd+PWWQZknA3PgExHpReD/lI09bHp6TxNVp2qiL8twcbpY09lyfn8wDhVQi3mlxl4eRg8vFTUWUN5slqHTCvJmH9tCbE+Jp0dwr2rR3hw6dpAkTnqW5c99q03q0hd8xuYwycuzp4AkHbfRFdf7J7VdJ/HOSD7bYrpG3PULXPPAfs3n+SHKi3EI7AjlsL8EEFtDVi0pzKs1WGXtZsCAr7lSWW2U2z9kSCk+WU+bBQlM8qcVLg+N9aOD0ruQV6koFqWVUWVgtSRO0UK0VvPB/fzORsg8Vmb1k4zsHZZ6OpElSO2OjKMLU4EV3jL86gvBzcLan3OMl1NDQSLinLJGzjU9VcY0cvy0fHrKk2Is+r00bD66bvxP5RnrIiR5aXe3vogfHSg08V4gL08so67D5d4qVmmeVYlr/tjyP6gK79iLv4C50WhASY5OWjY0thcT3J0cXN8pI3CG+cvVqfZjE7B2dqbq8hDwDw8jNN9CsWcbByYWiB4+mcmEyyzr8p5hQDL+WW6oHXautqqC6KvOTndp9Vy8/Cus9SLywkqgkx/IvlKqqWsLvbBIREUBduvjT/v1pVF7efIJ1cnKg/v1j6dix09J8Z29vR/X1hqrlWddWkKtzEz37kYfJ6rT4Orq6U9SAEZR9LJFKc08b5Ie2B7+M/duFSaXMIE0NYIw9/EMo++g+qijSf+miDkh9bY2alTBWDQ111FhfL+NwrBW/RhFnSnBv2NoJ85L4QZzdveQRY2zcHmiSFtxaQuNHVtL3mxS1rsx85o+trS05OzvLUGXl2cdbe62p8+ihQVSWU0Wl2abLgjYIRCptZy411Bvek6bKs2YctFHxV0VQVUkt7fz0qE6DhDbVVSvYq/XBvAYTRYUgUsaaJpiemsStBbObOYE5UKa20EU7MZHABITJC/U0NhiWB40U4mDCgxbOVFvU+qEBcXC2k2bAemFWMRZbO1GGrzPVCfORKZOkTBd1AJuLWTwCXQhkPFtMKEnrTuqaCnyMxcXbiezEmFcU1jQzIbZmfIB9Y73hmBjXAcxdvJzE89wgsBf1aLJjwgRRaBT3ub0gdfJ+Eho6Y1OxWqZ7gOiDuL6yqKbZvYA8untSlGHq2bF3FG0R95OxFlAtvz2PB9akSzyM64TGGfea8TOFex24APPW4oZ8GGOYGIGZsWlUfX4wKLg/zOHaGtw6y/NjPB7nGm5TotTnupl01fznxMOjr2b/2i/o5zcele2NHXIlTXzqA/Fwn9F2iAHe8OHztGvFhzL9ukfepO4jr5PkKKRHfxlXUZhHX/1zBhWkJ8uwnYMj3bbod/IKjpBh/MGk/N/ru+nCZ6tHl7GFE0zOM15fTgHRevV0XuoRWvqP8QYkoIUiWpUUFOQjzHF3kI+P3nS0ffsRevLJpbrrJ0y4lP7xj3FywkFkXl4JBQR40cMPL6J9+1J0+eCvA/ltV/OXKuJvfOFTgjnr0PrvqOcVkxAl5auHZ9DJfdsoOK4PTfvPF+KFp5hdkJi4bhn99PojSkbxd8Ckv9OouY8JQqsQIiTsWPYObV6kaH5u/2yrGH8H+t+Uvrpr7ltzlJK3/kTfPT1PF9fSyZwPfiLvkC66LPNXKqYf43FGht93O0uiNLJ/jUmiNHXqVJo1a5Ysa8aMGXQ+ZCkwzlu+zA//lKFrm/EJiBReiCf3WN/nzbgu43BgV2+BvY0gaTkGL+rqMj05gMq736RoYZbTk0rkh2nOmhJ1SSDFDg8xKDJ9Vy4d35ylixs9P0Fq3UAOVDE2AflFewrtSrjEXc1z6MeTlKXRdkUODqSuI/R1gTj8ueKEzn/FL9qD+k6MJkxiEHMkVy3/Qh5hMoUYj4eWHACv/jfGSI0T8uJ+O/B9OuWdKEHQatJvcgz5Rek/ulDPwbXplJus1OMd4U4DboylkqwK4XuimPpBvPYuPyHj1IZAG9ZlYKC8NxGHcrYvPqLzfXPxcqS+k2IE0dW/U45tOE0Ze/UfYHiuYoYqWjVcX2nCb06t70IefcLdxNjEUuqOHErZpjxTQd29qff1kXTsd9GnP/OpNbjBtA788TyrAi3zAaHtVT8U8PxAa+wjxgH5gP3xLZkW49aZnh8Vq/M96hnM+ZZkdL1/VHe65r4XxZdAHcHnJ/GHZWIyvoHc/YJkThtbO5rwxHuCbdvRnpWLxFdBDg372wM0+vYFdHjDairP17+ofcNjJbkKiR9ACddMoyvufoa+fmSmLGfMXU9JkrT3u09oz7cLha9GDPWfMEfXGkvq0V1k4mTyc4slSTq+7WfZn37jZ1O3y66l6/75X1r93N0mrji3qKefnilJ0q5dyfTrr/to3rxraOjQHnT99YNp7dpd5ObmLEkS1O9LlvxGgYHeNG7cYJOVdetSJ7/4sgvsTKbLSPGZEj9mIqXt2STHqPvI68UDVicmETua/upX4uXrQntXfkJpezfLsekz9iZK272Jjm5aKy8fccvDwi+mhr5ZMIfKxJj1unKy+KLNM1/fOaSseHQ2OXt607UPvkJ+kd3o83tukKUYa5MQmXxSId09okxrp7TV24l773wEL3xoJArSTGvZQEKgDYB/xPk4kp6tjRl78qVfUKPwP9KK65mJpiTLtLYLeeE7BZKUvjtXlgEyE3VpEBVlVFDhSdP90tbR2vN64Tt1dP1piRW+VvEyxg9+V/kpelMpJv2Te/JkXPcxYdT9ijDKTy3VaYXQXjiL/7niqNSK+XbxEJpgvXYssJuXJEnwk8LkBK1F9zHhBD+uPV8eFx9lttRnfLQcjyO/nJIaCS2pMu5P8sZM6RNkHG/tsLl63Hyc5IRnSiuGNkDL0FcQXTuhUUZ/oCmME7gljI+kTe8nUf15ODAb9xEaiswDBVQitKcuQiuJsUkYH0Wb3j1ocH97BLjKtmACh39bn4lRtFm0BQItH+4vENuUrVmSrII4QGMJQX9ALKBNgk8RSCwIUdzoMCoV9zHuZdyviEM4eVMmwbwc1sdP4qSUov8L3IAt8p6PmBsftUyQd61/IMzsIEYgM/ggiB4SJPwYy6S/W6+xXeQ5SJJWWsIN+tqMfXlCs1gsxrReaqnh2xMj3kEgXKrgIyBlezYViXp7CG0ycIMvEDRarcGtoz4/av/b6thmRGn0vMfkXb/ho+flRIsO5J5QHhacdx16pdRCpO/dQuvffRpRQnPhRZfOuJsGTZlLGz54Tsbhz5ZPXyNoovDDROwdFqVLU1dLndjxGxVnnZS/1F0bdOmW1KO7yOgEpqKwXgOpqrSItn+u+Bft/PJdiuw/nGIuHWOU+/yCsbHB0tT22GNLZEEnTmTRxx/fQxMnDpFECYQJposff9xLX365Sebp0yeKIiMDm1Uc4t9AFdXizXMW2b/mc/rlrQUyl0qAoA2EyQuapaRfv5FpGKcbX/yMBt04TxIlaPOQpygrXZhNd4ovwwbasvjVs9RmeXJRZhpRpjCPVpbLi7OO7DNbiPi4pJpaGwoPbG6OwUWZmZmUk5Mjr68TK+zOVXy6uJOrmMSSftCbQ4zLihwUIKNShYamLcWc5sDZUyGNdcL515xgkoJ2AqtOINAQDL+9J4X28bUqUVIdj2EewAqz0/sLhPOtD3kEuRgQJWi7MClBMFHCvwoTIbRc0ABB2wDHefhawewDk5RWMCFBw3B8c6Y0axRllIvVNEUU0stXmIPspNM7vrZTN+XoNC74Wled1bVl4dx4MjNOt1bYXD1OYgzrasyPn0egqyQVIJenBYmB2DnYUc9rI8QiFS/p12atNqoTMnylasQ9BbLTbZQLuQryU6JZpJB1qFDXFjfhTB0tiBEmaZAejAGkPK9Kkgacp/2h17ZCG4IxBh4gFpAT27Lk+IQm+EmihI8PSJLQJIK8gWzjHjHlj1QrSDSwOV8xNz5qucDEzk5vd4Z5TJUTW7IIhL7vDdGSdINAQuNnLC3hVnyqgvDDR4ajIJH5QnMUdWm9UBLoNcEoD9pTLBqB4JnDxwbMk+V51fKjDfEt4dZRnx/0qy2lzYiSSmYO/vi1yfYHRMfL+NTdG3Xpxzb/IIkSNEhaSfp5hS4ILYK9g14lCzNPt+HX0tSXlsqJFJMoTHsgTRBL6tFVYnQCHyqIi6cP3fzOGsNUrZHeMMXiELRDeNhTU/UTa3p6rvQ98vVVVN4qIdq27ZCu/CNHTpkkSmWVNhTka6hl0F2kOdm7arEmpJyG9FBMZV36DWvWZ8+AUJkJ/mTwOwvrNYge/PGE8G3KFKR4Ee3+5uNm5bVnhINDE5WUmyaImzdvJvzOV7peFiK/3jEJmxIQgi4DAyj3WAnViFVTF0LqqhSyaOdoS9TczU2aakA+ik4pBBRtxDJ4+D64Cl8Ia4pnkCslTIiUK/i05WKC0QomA1Xg+wXBxAkBAYJDO7QHo+f3ESsIy6VZQauRchWrwtAn7QouebH44yp8a9SytBM7+m+OKKnXXqgjNELw9TEnmAQhWtyKTyvjCX8WawrIZo8rwg3MPyhfSwoQlqszcSKkJFPR5AB3ECXgDi0sVltBowgiCxJcnq+sNgSxgkT095c/GTjzBx8mEPRZmtsESVIF5j7vUHc12O5HLHiAz5YpwRSx/7tUumxevPy42vVFss5cps3fEm7wDesjzMVYwaoVY011kUYLDB8/CHySIK3BrbM9P7LjVvhj+JayQoG6IlQCAV2qCVGdreFcq4qN7txwcjcwsaBcTZk5yQfo7UkJNPyWh4Qp7BqKHDCc5i7ZRG+OjxdfYlXiq1Nh+a2pR22H8bGpUSnj0G8raf17zxgkNzU011yoXzZwgrVE9G1tjplaVsOZ+mCCU8VBfEGaktTTDkKzUk0uTmLvm5rmZcprRBtVfy9tGXgRQVY9cwdlHNipTRKqX/2s+8V9k4VJdTL1uW4GhfUcRJff+SSFdO9H37/wD3mN2m61ANURWw1b++jv3UBwPTmeYX5yOd86YR7yFPt/4Avb3BCH9/OXEzbU4BdKVEdlTJjquWFblDFW71eDNMtuXYNLjQMoHyQJ5DFxVZr0VwGZgeaqmWhv0zPnmsddapmgRYImDFoEfKWfECYcOMurAnNHoontCWB+8BY+I8aCtlysgnGDYy5MhqYcmhUPevFK1L9GReBMb6w4hlgA0POaCLm9RcqWbOlL5hfjQb2vi9S+jmXF2vtJO3YqxtsXHaHA7l7SfARTD8YS5EH6ip1pM8JaPyxcq76T1D6r5SlHtdOGsRdLCBo19T6Dn5fsq1HjWsINxBIk6fAvGVKjCnPzkFu6N8PewGncePyNw7L+5rh1pufHCOJzDmofr3MuxNSFhadSZXSfsTNMJRMcoSFRg0bp0rsNHyvPCzNO6OJacwIi9ds7T9H7M4dIR3CscEu4drq81JJ6KovzxdPYRD5h0QbVqhsg+kd3FxNOocEPK/K08sYbb9CqVavkz8ND0QJp03FeXFwuqmmisDA/g6S8vFIZHxkZpIuPigoirGgrKlK+EpOTFbPEkCE9dHl69AjXnWtPEo8rZKF/91ptdKvO1T4H9+hn0F/0HwRUK4d++5a+fHAavS4c6OGThtWHqsDh2tnDSw1Sr6um6M6NT0pzs+TKNic307hBg4Wx1TqOG5dxSS+lr/uTlS9t4/SEhARavHix/AUF6XE2ztdSOGZYsPSHgO+RKcELEc7L+Fo2ftmbyt9WcQVivyQINDCmBF+jmHy8helJFScPbC4pVtWUNP86hr8HyA4mbXNSXV4rv1y16SgTEy2ccWEmxD5AMLGYEu0XM8xyEGNHXXx5w99J8Y2pF4RJMcUgL76isXcOVl5h0tD+ZFlntBDaerTnyGOJYAIbOKOr1I5Ycl1r8+aJ7QAgIIWmRCXA2jFUNStVpsbQxPhoy4VZCPeEqqlS03yjlPE6vjFLaiCRz1841psSrzC9OUjdUFBtJ/Lj3ZdzpJgOipVi2wRpggSLPaIgOs2SMOdpxw7n6ipJmNvwjGmdvdV6ZCEW/AEJxfjh5yh8CttCcO/DZwzvA5jw8P4wdc+1hBtWzkJrBn8jPId4RlGuJdIa3Nr7+bGk/Rcyb9vcGaJHGz58jmKF/87Iuf8iOHZjk8Aeo8YL1bcPrXnxHjqx/Vc54Ub0HUJX3/eSsDXn0aDJt0mismvFR63GZOzDr4sHr5FgnoPPDBysIZmH98qjJfVgUseS/y59h9Io4WNVnJlGRzeuldsTYOsCrBCb/fYq+uPrD4R5olqQsWnigbWj1q7ekg0Sf2pr64WfTDH17RstnbUzMwtp48aD0jfp2LFMsXt3GL3yyq0y7m9/GyMvW7lymzyuXbub7rrrOhozpg9hp2+sjgsNNT0RLv7ene6+sYzunFJG2xItU8Mf/Gk5wVH+kml3kK9wkIejvIcwuQ24YY7EBCsTPQJCaOqLS4Uz/kKB958Uc8nlYhJ1oIKcY2pXxcvhhFyxNuHxd6WZbvicB3Vpxif71y6Vqxyx+ee+NUsF/unSyVzNVyDKihBjM+X5JWL13ZeSwMEJXSu3TSwnKMOW/tBcc4B8vr6+8odzLy8vnb8Swq0RTCDYYA2aIvXFbXxdSC8f+SJLsfLKMeN6zhbGDtrY7RZf7HD8hCYG+yfBZ+SA8EXCCzf7iPDfERv1IR0mLHV/HlMkEJM2XvLxQrMAE1it2H1bndjUtsDUCPIQdWmgcKCtEltFVMt6sL8SJns4vnsEuFDsiGD1EoMjXv7wq0Bb0CaIun8TzA9wUIV/U6UoF1/pMN1pnenhnwHn4f5TY+nk7jzpwwIfJDi5wjwCvxesBsKqKRA2jKd2JZdBY1oRwISHdrTkB9aKYsxmyUoqkqsFe1wVTjbCPwWmK3d/Fwrv60e7lgktjNi/C6bdMOG/A9MPzK1dR4ZIsqOuRtMWbmp8tKZhkCRM6PADwtgiDRM0VlNBIgb6U8POBgoSKz7NkbdQYaKrENfCgR+r9jD2qgYFew75i7GAUzIcz0PO+BuV5VbL8lE3+gEncIwNCJWDi530MYODPog2yAI0tr3GRopVXVliexkfSeDPtrWBrMDoD+4p71DlXWGH3ecNvwGNcpsPgugZ796O5w0a535TYuS7An5JIJjAACvYtn582GAhQku4oe/YcBT3MTRqxitIzbdMn9Ia3Nr7+dG37uI+azOiBK3QDy/fLzYIfFlqd1QND1bAQUBuVj19O016diH1vX6mLu63954WX4Vn1OhnzGYy0cwfB2dXObliNRwEZGff95/J/YAQblU9yHhGfnztYbr63hcEQbhTxuDfmcCh+dsnbhWk4DMK7TmQJj75vpJbPAUHfvpavdSi42uvraR7751A06aNkNfh35lgaf8zz3xOb711J/XrFyN/SNy06SCtW7dH5msUZsBHHllMzz13M40Y0Uv6Lx09elqSq7o6QzMgVrtt3e9EowaexfwmSzb8A9y+uH+KJEIwaeIHwZ5He79bIs/xZQjtG4jumQgqy8uU5jolQmxNIEyV06LiqPuocfKHvZhAdkwJHPuTfv1WEOpxdNU9zxOcuD+eM1KXdeNHL0h/KBBZ+E4Zbw/g49FIg3vW0K9/uFBRmXjpmZDgYP0EnZeXZyJHy1HRQ4LlJKRdqmx8BcgEnFUt3YXbuBxrhLH3Dl7OWp8PTFDQuECSN2SKjxcng3Ss1sGqGWPBxInl/PC9AvnC5LlvZYpBNuwYDX8UrErCV7+6rPvY75li8gujwTO7yfzYxRyTu5xJNCXALwkaMEyEEJga1O0MxPwgnGLdCeYaiJzUhX8R+qAKJlJom7A6zucGvdZKJQ0gt2hzP7H8HEu0IfBRApk6F4FjOkSrMTmXcsxdg2cMe2BhOwMQSFW0/iz7vkuh/lNidcQShGG/MHEa77ODa82Nj1oujscEnlgJCFMbRN2xHKu35NgLkgTs4SSNMNqoFdz3KsmFJijxuzR9ssiKsVW3PUA6SDccmVXBdgIJ46LkSjE4F0PQF+xODykTzxbuQ7SxvyAhaAueN/jXWCpwjFZF9elTw606nuk6nnljyRPkBu2H5gt9Uvcu2/dtCg27tYfcDX7PV8d1l7WEGxzeoWHFfQvBc4KfrdDwasVoKGSSGtca3Nr7+dG2/WI+twkPDze8y9ugtViy7+EfTHkph+XKMeMqAmLixZehq8mNIo3zmgpj5RU2PIQJDnWYk/OtB+ViBVxQXIJQC9eKVXyH5NFcfecTHxDgSdh0MinpJNXUmHYGhkYJ2qk337ydevbsIlbG/VvsC2RoMokIqhfq7Wz68FsP+vdCvQnMkrZhk82A2HgqF1s4mPJnwvhinyOQIJAXU4INK6tLi4VJx7S5ytQ1lsa9fE8Rzbi6ggbMDqH8YtN+W6+++irFxcXRgQMHaMGCBRZVAW3MiDt7SfW5ugLIuABM4lgyDedNrZOxcb7WhkE6ht0Wr8u+/o1EOTHoIlp5Av8HfKGDKECTZCz4sobTMNTz5jRlxtecSxiTRnVpnUl/myse6CuX9GNZP/KZawvIiaOr2Byzhc0M0TZsSgkzIfpr7N8DPLB9gkwTk/W5CLZ/GHlXLzkeWz44JDatNb867VzKN74GZk/0Cf4p0IYZi7MwcdrY2Zp1KjbOfy5hkF/ck9BWGhMkrATFPkrYhgGk2sndXo6hOlGr9QnoZT9sRVtVh2M1TXvEIgQX9FeYiI21NciHsXUWbanEBpvGlWgLauEcO55DewaTmLlnuoXLrZLUWtxQGca4QRBh7ZYYljaitbi19fNzyaw4Sf7QfnzcqCtjLe1Pe+RvF6LUHh35K9Uxf/544atjQzt2HKHhw3vStdcOpIKCMrrpppdNwjC4Vw1VVtlSUor+68lkxg4eGR9dR67CcX3PEfO2++XLlwuTpaP4NzJzxUadlmmUQCSgeSgQ5htzLyo4emN1jrX+wSMmJpiqVGnpX6WoeTrqUSVK6sZ8F3s/oFWDVgqaFXVLg4u9zW3ZPu2EfzFoU1vT1+HzesrtKja/f0in8WnNddbM0xFxs0b/8eHm4HRGIys+Zsy9U61R1/mW0Wamt/NtGF9vHgFvbzcaObI3jR9/icwEkvToo4vNXrBL/A+0v4IcTj07EZw+fbqEAiZMSwVftfDpaUmw0dz5/E8347JhVujM5KhZf89RM2BcTnuEoTU5JHZlVx2u26POi7kO3KsdTeDjBD8s1Sx2IdrfEXGzBk7QSlZRc+22Ncq2dhmsUbI2ou1UHjRK+LclWA1XV9dcDd9OzeBqGAFGgBFgBBiBTo0Aa5Q66PDCJp+bW9xBW8/NZgQYAUaAEWAEOgYChi7zHaPN3EpGgBFgBBgBRoARYATaBYE20Si99PKLsvFPP/lMu3SCK2EEGAFGgBFgBBgBRqAtEGCNUlugymUyAowAI8AIMAKMQKdAoE00Sioy1dXKbqtqmI+MACPACDACjAAjwAh0JARYo9SRRovbyggwAowAI8AIMALtigATpXaFmytjBBgBRoARYAQYgY6EABOljjRa3FZGgBFgBBgBRoARaFcEmCi1K9xcGSPACDACjAAjwAh0JASYKHWk0eK2MgKMACPACDACjEC7IsBEqV3h5soYAUaAEWAEGAFGoCMhwESpI40Wt5URYAQYAUaAEWAE2hUBJkrtCjdXxggwAowAI8AIMAIdCQEmSh1ptLitjAAjwAgwAowAI9CuCDBRale4uTJGgBFgBBgBRoAR6EgIMFHqSKPFbWUEGAFGgBFgBBiBdkWAiVK7ws2VMQKMACPACDACjEBHQoCJUkcaLW4rI8AIMAKMACPACLQrAkyU2hVurowRYAQYAUaAEWAEOhICTJQ60mhxWxkBRoARYAQYAUagXRFgotSucHNljAAjwAgwAowAI9CREGCi1JFGi9vKCDACjAAjwAgwAu2KwP8DupGC0j/3MuUAAAAASUVORK5CYII=;" parent="1" vertex="1">
                    <mxGeometry x="2720" y="580" width="586" height="99" as="geometry"/>
                </mxCell>
                <mxCell id="161" value="" style="shape=image;verticalLabelPosition=bottom;labelBackgroundColor=default;verticalAlign=top;aspect=fixed;imageAspect=0;image=data:image/png,iVBORw0KGgoAAAANSUhEUgAAAmMAAABkCAYAAADKUjfsAAABW2lDQ1BJQ0MgUHJvZmlsZQAAKJF1kL9LQgEQxz+mIYRoQ0RDhFA0WZgWtPojInAQS8iank/TyB+PpxFBREPtQi1tYUvQXktD/0FR0BARDUF/QORS8rqnlVp0x/H98OXuOA66HIqm5WxAvlDWY7NB92JiyW1/wcoQTslhRS1pgWg0Ii18a2fU7rCYejtm7ko8h5225a1YcnvNpdyc1v72d0RPKl1SRT+kfKqml8HiFY5ulDWTd4T7dDlK+MDkTJNPTE42+aLRsxALCV8L96pZJSX8JOxJtvmZNs7n1tWvG8zrHelCfF60X2qQMDNEJN3E8THFBNPi8c/MZGMmRBGNTXRWyZClLNMBcTRypIXnKKAyjkfYh1fKb/769w9bXrEK029grbS85CGc78HAfcsbOQLXLpxdaYqu/HzWUrOVVvy+JjuC0P1oGK+jYN+HesUw3quGUT+W/Q9wWfgEsWNjXgPMOCcAAABiZVhJZk1NACoAAAAIAAIBEgADAAAAAQABAACHaQAEAAAAAQAAACYAAAAAAAOShgAHAAAAEgAAAFCgAgAEAAAAAQAAAmOgAwAEAAAAAQAAAGQAAAAAQVNDSUkAAABTY3JlZW5zaG90CW5nfgAAAj1pVFh0WE1MOmNvbS5hZG9iZS54bXAAAAAAADx4OnhtcG1ldGEgeG1sbnM6eD0iYWRvYmU6bnM6bWV0YS8iIHg6eG1wdGs9IlhNUCBDb3JlIDYuMC4wIj4KICAgPHJkZjpSREYgeG1sbnM6cmRmPSJodHRwOi8vd3d3LnczLm9yZy8xOTk5LzAyLzIyLXJkZi1zeW50YXgtbnMjIj4KICAgICAgPHJkZjpEZXNjcmlwdGlvbiByZGY6YWJvdXQ9IiIKICAgICAgICAgICAgeG1sbnM6ZXhpZj0iaHR0cDovL25zLmFkb2JlLmNvbS9leGlmLzEuMC8iCiAgICAgICAgICAgIHhtbG5zOnRpZmY9Imh0dHA6Ly9ucy5hZG9iZS5jb20vdGlmZi8xLjAvIj4KICAgICAgICAgPGV4aWY6UGl4ZWxZRGltZW5zaW9uPjEwMDwvZXhpZjpQaXhlbFlEaW1lbnNpb24+CiAgICAgICAgIDxleGlmOlVzZXJDb21tZW50PlNjcmVlbnNob3Q8L2V4aWY6VXNlckNvbW1lbnQ+CiAgICAgICAgIDxleGlmOlBpeGVsWERpbWVuc2lvbj42MTE8L2V4aWY6UGl4ZWxYRGltZW5zaW9uPgogICAgICAgICA8dGlmZjpPcmllbnRhdGlvbj4xPC90aWZmOk9yaWVudGF0aW9uPgogICAgICA8L3JkZjpEZXNjcmlwdGlvbj4KICAgPC9yZGY6UkRGPgo8L3g6eG1wbWV0YT4KZjb0twAAPclJREFUeAHtXQd8VUX2Pum9kl5Io4UOAgLSREVREEFBbKurWHexre66unZXXVddy38tqyAoVlwQwcUG0qVLCy2BJASSkN57wn++uZn77nt5L+RBQkhyDr+Xe+/M3Jm538y98805ZwaHqKioU8TCCDACjAAjwAgwAowAI9AuCDi2S6lcKCPACDACjAAjwAgwAoyARIDJGHcERoARYAQYAUaAEWAE2hEBJmPtCD4XzQgwAowAI8AIMAKMAJMx7gOMACPACDACjAAjwAi0IwJMxtoRfC6aEWAEGAFGgBFgBBgBJmPcBxgBRoARYAQYAUaAEWhHBJiMtSP4XDQjwAgwAowAI8AIMAJMxrgPMAKMACPACDACjAAj0I4IMBlrR/C5aEaAEWAEGAFGgBFgBJiMcR9gBBgBRoARYAQYAUagHRFgMtaO4HPRjAAjwAgwAowAI8AIMBnjPsAIMAKMACPACDACjEA7IsBkrB3B56IZAUaAEWAEGAFGgBFgMsZ9gBFgBBgBRoARYAQYgXZEgMlYO4LPRTMCjAAjwAgwAowAI8BkjPsAI8AIMAKMACPACDAC7YgAk7F2BJ+LZgQYAUaAEWAEGAFGgMkY9wFGgBFgBBgBRoARYATaEQEmY+0IfmsW7dItity795c/t4herZk159XKCISE+JObm0sr59o0u0+fz6MV/8ppGtEY4uTiSr4hkeTg6GQzDUd0bQSmjqugA1+foNiIuq4NBD89I9DGCDi3cf7ndfYuPkHkHd2filM2U0NN1Xld19NVLuqed8gjfohMdqqulg7cHW/1FveYAeQSGE6lv/1oNb4jBX744f1WSc3ixRvo22+3nNNHcXFxpilThtPOnUcoPd02AYqODqb58x+g//53E7333v/arI69Y2pp3NAqeudrH5tljL7lIRp5wx9o4b2TKSclySwdiNrgKTdT2s71lJ+ebBbXGS4SxoSTi7sTHfz5eKs9joMDUWifAIoYEEiefm5UnF1BWUkFlHe0RC/D3deVYkeEkH+kF5G44eTBQsrcW0DV5bV6Gv8IL+o+LJi8gz1kePb+QplPQ/0pPU1bnIT29qfwfoG077t0qquul0Ws3ORBb/2pkF65v5BmPRbcFsVynowAIyAQ6NKaMd+4CyjmqkfIzT+yw3eGtJdm0IF7e1L5/vXNPkvwtIco6r73m03TUSK7dw+m4GA/cnZ2Mvs5OZ37bu3j40H33XcVXXPNqGbhq6qqpsLCMjp2zDZhazaDFkZi8KwT4+nrn/ravKMoK53KC/OoqqSoSRp3H3+aeN8zdME1tzeJ6+gBHv5ukhBVlZoIUGs8k5uPK/Wb3F1wLAfKSy2RhGvQNXHkHeSuZ99zXASB9JScrBC411D86DBKvDxaj8fJoOnaPQXppeTs6kR9Lo2iyEFBZmla+wJ17n1JJDm5OOpEDGXU1TnQ95vdaWT/aooM1ghaa5fN+TECjABRu2nG3AIiCZqpqtyjVFdZatEWDuQeHEOOzm5UefIInWowqcgdnJzJwclFaLIqydnLn5w9fKkq75jF/dqlo7MreUYkivyLRTnpIlCbWTo4ijycXWT+SOnk5kGOrh7yJuRrjyAfB1HPhqoymYdHwlCqPnGI6kryzLKBGdElKIqq0vZSQ3W5WZy8EB9Djzih2TrVQFXHD9Cp2mo9DcqAQOOlxMHFjai+XsdGYlRTZ5ZGpcXRwdVdmKM07HDt6O6Ng8j0lPX6aLGt/hfEyd3dlUCYevaMoB07UqhbNx8KCPCm5ORMWR5MeNA0lZWZtwXCcV9FhQmb7OxCuu22f1mtp6ur1r1rBC5KkEd9fYMYZLSBxdvbg2pqasV1Aw0ZEk/79x+jysoaldzsiLQDB8ZSSUkFJSUdE9CdkgOvl5c7gYxB3N1dCOkgVVU1ejm4xrMXFpbTjTf+U9YBYZaC+g0aFEdFReV0+PAJs2gPD1dZHp6/V69IWQ88v6X4eTfQ0D41tHanO1XXCHWNFXF0dqakn76Wv4Y6Ez4ODo7k5uVD7j5+8i5ndw9y99bOa6rKyZgWCQKjE+QvY/evQotjeo9dPb3plOifYb0HCeJxnEpyMil60Eg6kbSd6mvN8UWZsReMpYaGespM2kG11ebtbqX6ZxUUPypUvDenKOO33Cb5gCh5+LtS2hb7yXJtVR1tXXSYSnO0+qdtzaGL5iRS1OAgXQOXvi2Hklamk9JyDZgaSyE9/YSWzplwP2T3N6lUdEL7RojPAo29tx91vyCIMnY2rW+TB7AIaOnzhCX6yzoc3YjvpLk894E/TRlTSU/OKaJ7XupmHimuHB0dRb/XCGdFRUWTeA5gBBiB0yNwzsmYX6/RUhsFoqQk+9cvKHvDInnpHdWf4q97lhxBNiBiwDv2/RtUsG+VvIy8eA4FDZlCJUe3k2/8MBlWXZhFRxb/jWqKT8prkI5et7xOHiHx8hp/QLL2vDlTXodddCOFjpylx/WY/bJ+nvTurVRblq9fn+4k8s63yfeCyZT/0zzqNulOPXnq81dRZdoecgvvQTGPfkXOfiYVf96Ktyln6St62ohbXyG/MTMlWZKBgpAdeeoyqs48LC8TnltFIF/Jj16o35P4XgoVrv2Usj5+TA9r7iTur0ulP5lK0+ffB+QpSOTBPySq4DY/Xn/9WEGeLtWJDEiHn5+nJBlbthyiv/3tE3rkkRk0YcIAevDBDwTpMQ0Oixf/Vd43bdrzLarnJ5/8SRKga699UU+/YsXTtHHjAXrmmU9l2NKlT1BmZj6FhwfKOoBgff/9Dnr99W/0e0Cu/vnP26lHj3A9rLa2jpBv795RMk5FXHrpYMIP8umna2jBgp/leWxsKH3wwVx5jj/WzJR33DGJgA+0FJDq6lp67LEFtG+fhsGCBQ9JItvQ0KATvpSULKGRe0fiIm8Sf0YP1Mjqln2md0zF4Tj+zsdpxKx79CCjmRKE6fp/fqHH9bt0BuEH+fXTt2jDglfleVivgTTrH5+Rm7dJ87Zn5ef0w+t/kfH3fbWDXMQEQDyMvC4vyCWvwGBJxD57cAZlH94jw6c/N48SRl4ikjVqMwX+i+6fRlkHd8n41v7j5uVCYYkBdGxHLtXXNMjsnVwd9XNosfyECVGRMWPc6eqC/BQRQ1qvQO0bZjRBQiOmBO3sKYgfiGFdjUnrpIgY0rl6igmIIPGVheYEVuVh7Wisc0ufJ/6iMCrPr6LC42VNsszKc6JaoSEb0MM0GTQmmjlzJt10000yaPbs2WKyZHpGYzo+ZwQYAdsInFMy5uYfTnFX/5UahNYne+OnVHhgLfn1HEUu3oGyhvggx1/7tNB8OVPW+oVUV15MkRPvpO5XPCjJV11Fsf4kHqEJlLbsJfII60GhF86k8LG/o/QV/5TxIFogYlnrPxEk7mdy9QuhbgMm6ffmbP2vKHsN+fceS2Gjb6C0b1+mqnxNu1ZX0dRko99o60TUO/DS31Pxr0uoaNPX5DP4MvGBFR9X4Rgd+9gScvT0oZwlr1BF8lYKnfkEBU2ZS+WHfpUmRfhw+Y+7gcqS1lH2oifksweMv0loFax/+GxV4XThGW/dTo4ePhR+i8Csx1A6+vTl8paG6pZ/OBcsWECBgVpbWZZXL7Qg06dPtwy2ef3NN5ulBig+Poy++26bIDoRNGJEL5l+/vyfJBm79daJ9Oc/fyTDhg3rSdAMrVy53SzP0FB/WrjwIT0MGq477nhTv27JSUREN1q/Pok2bNhPc+dOpcmTh9G8eT9ScbGGzQsv3CKJ2JEjWYJcrRIanAZpknRycpKatLlz3yNfX0/6+99/R5s2HaDPP18rizX6jh0/nkePPjpfkL4Aevjh6YI8aURA1S8hIZxmzx4ntX4oG1rDyy8fSs89dzPNmPF3lYw8Pd2EiTOX3nzzW6FhmyDrNXXqCDMfuWGJ2sC9J9k6Gdv21fuUum0NDZ76O+o97kox4dGzp8z9O2jR3KvJwzeQrv37AkrZ9CNt/vz/ZALlOwaH/+tf/VJoUjxo59KPpF/ZhLueoIGTxbu0fR0dWvedTF9TWU4/vvFXmvL424JUeNGKF+fSlL++RUOm3UYr//kwRQ8cST1GXUYnk/fSylcfEaTDhYZdO0cQttbt+6anI4oR/loQaKiUDJvdU5Kh/d+bNOzOwp+s13iYFANo3Tv7qF70K3vEN9STYKKsLK6hY9usa7T6T4mRfmFJK4WWVRAyS0Edht3YQ0zSiJIMdbNMZ3lt7/MExfsKTagr7V2eZpmVfl1Y4kjBASbCqEdYnOCdYGEEGAH7ETinZCx01Gw5U8748f8kGUJ1QYyUeEX1k6Y+kLSTmxfLYEc3T4I2LLD/pWZpM3+ZR0WHN8pfyLDp5B4Uo7KR5ktclKbvklouaLrKT2iaIITXCzMhfrURebgkaNZsmTplghb8yVv+FuV++y+ZUvlt+Q6dTE7eAVSybTmV7lwp47I/f4binlgmyNvtkow5i3hIVfoeqslJk+fZXzwrj635p1Y8I4lfvTDZQpTWzZ4yvvzySwoLC7N6S2mpyURlNYFF4FdfrZdmPJCxL79cTxMnDhRapkiCaTErq4Bgfhs4ME6aQEB+brppgszho480TZPKDmZLNzcT6XBwsH8gLyurEqTnc5ll//4xBHLTs2ckbd+eLOvTr193YTKtonvu+bcqlrZu1bSWCDh48LggqT4yrqBAaBrFtaXALLpr11HKz9c0pLomqDEhNGIQEDG1+ACEDCQNPxBBJQ8//IEkirm5JfTGG3dK3FQcjolxGga7DptwMcZXFOfTsV2bKGaoViZpyiuZpK6mWmqlvAI10gKNlqWWasAV15Orh5fMI+ln7f1d/c4zdN1Ln9Cw6+7UyVhe+mE68Msymvzoa1SQcUSeX/6nV8gnWNMwQlMGyTmyn3KPau/nipful2Ft8Qf+V1GDulGWcIivqTCZZvcsS6VeEyJp9O2JVC38yECCxt7VjyoKq2jn10fsJmLQTA25Ll6YHetp+2fJVu+PGR4izZPJazMp+0BTUzOef8CUWEmStn+eIuqiaTtbgou9z5MgtGLQ3uUka98Ga2WcLHCikEDrZCwzM5NOntSsErVtSKSt1YvDGIHOgsA5JWPuQd0lbsXJm6zi594tWoaXpv2mx5em7iASZMw9MEoPw0nxkc36NbRZ8C9TkrfjW+o28HLqdfNrBG0aSFnmmvl2mR9VXi09QiNmKdB6QXyHT5U/Y7xrSKy8LBMO9/VlhRR05R8p8JLfU2Xqbsr578tUedSEgfG+9jxfuVIjlK1Rh/LyKt03C+fwr4LAJFhQUEpLlmyS2qdp0y6k5cu3EggRNEJwfjdKZmaBTZ8xY7rmzo1EJzn5hEwKTRcEZkjIvn1p8thWf2AmhUBDp2TPnrQmZAz+Ykpjp0y4Hh6mvo97cwo1k19USD0Vl2nnKs/WOIb3GSSz6T54NN3y7xVmWfoGR+jXddVV8ryhvk4Qk0p5Dj8yFzdhvhRyaO13dPnDrxDIXd9LplN+Rgqt/c+LlLZjnYxv7T/Rwu/KwdGBUjdnm2UN7dVuQciihwRRr4sjZVxuSjHt+TbNLF1LLwKivMnZzYl++/oo1VSaSJ/x/oj+gVSWVyXNpcZwdQ5H+sDu3nRsey4VZ5Wr4BYd7XkeP7FyE6s2D/yU0WzePp7Cz9I6FxN9dr38NZsBRzICjECzCJxTMiZsM1plGv1ILGsGfx2ImdagMe0poy1FpDFuRQGTj/Kzwf1VBcdp79vXU/DQaRTQdzwFJI4XJskxtFf4jDXUaYM+0rWaiPJr85p+zJQpKv3V2dJ/zFjeKVUP8cyHHxpKARNukoTNq/dIoTn7lnBP+YGN2i0WJi3d+d6Y4Tk4f/LJJykmxqSBNBZZXl5ODzzwgDGo2fMGYZZR7a2da8kdxWAJWbZsC9111xVideJI6feF9sWWFfaI6m7qHuVYr67VEb5ZSizvUXU09i+Vti2OxnJM543vjShQLTwwlg0HaqPsOOhK106skE78SUddjFGtcq5MasuevZsy9m4xy7OukXSZBYoL9S7IcPVOi3799owBNOrGudRzzGQKiUukmS8vomXP3UOH1//PMouzunZ0cqDY4aFym4nKIvNvAHy7ek2MJJAoaMag2QqM8RGasj50QGx9UXjMfAJwuoq4emqf1apS83KM97l4OFFxpmYGN4arc2y7AakUKy7tFXueB6s5sY1FVlJhs8XARFlUqtWp2YQcyQgwAmeEgPlX/IyyaPlNVXnpMrF/r4us3lRdoBEan9gherxP7FB5Xl2gaSz0iNOcgKyd3PwlHZx/H2Wu/UjMiJ3Ir8dIs7uUX5ZLo6nQLLIVLmB6hLhH96UGsWLU+DOulsRKyILVCyntH9dRyhMXy3sCxt0oj/gjV476a2YjXMMnzZbUCFKI1ZeObl5Wk5wSK9nUalKrCZoJVMTEWpI6w4o8a/H2hsE0uX17CsGfa9assZKEwLHeHsEqSbXKEfdddpnmWG9PHocOaf1uwIDYZm9TKzYDA72bTWcrEosIIOPH99eTYOUmBE769sjmvZqmbEAP+wdyVU69MFdClClRheOYdfA3eRnWZ7DwiSow+9m7EhKrMzd+/C9acNckWnif8F8TMnjqLfKo/gwYMED46i2Qv9DQUBVs1zFyYDehPXego5vMtWLIpN+VYoIh+O6meQeECbOASnMraf17SZSfVkqDpsUJXzb7PpM5Qqu29ZPD0l/MViV3fHGEDq46bitamA3FykyRR7bYh8xeaenzeHVzl9o3rPpUBNtaWZgfebqfovRs62SsNdrHWrkcxgh0JQTOqWYse9Pn0vcr6rI/kFtgNBUdXEu+CSPI2dOPTqz+gMoykqQvF1Zcho25meqFiTH8opvlisqCvT+2uF0ixv9ezsSLDm2QxCMgcZy8tzI31SyPytw0eR0hzKCOLu7SpFmWsU+EmTQRZjfYeVG66yeqL82nkJmPk2tYglz9iFWVgRffKvzIVghn/8XkO2yKXI1ZuGaR2A4jlwIn3SlLqUw1rSbDVhfYXT/sxueEGXMXhV3/lM2aFAtzaeDEWyn6gY+ocPXHVCtIrNHkqfmKXUWRc96koo2Lqb68yCzeZsYi4oUXXmguutXjPvroJxo5sjf5+3vJFZD2FpCRkSdXSf7tb9cLR/sMuvXWS+zNgrBqcs+eVOm/Nm/eA7Ro0S+SGM6ZM0mYUd8lmFgh2IYDW2ZgoQH82+C8f+jQcYJfFwR+X9i+IyTET17DkR9pYZ7FasnPP18n/OYG0e23Xyb81FxE+jCKiwuV21ccPdqUQMhMbPxJPuYitBiOdMXoSvrzW5pPojEpzItwlg+IjJXBUf2Gk5d/EJXkZuobvFaVFYvtF+oodth4GnXT/TI869AuQVSyaN8Pi2nivU+LFZl3U2BUPO1YMk/4gUXQ0GtulabHbV//x1iczXNsKttr3FX027IFMl+UA8k+tNvsHiwaUQtH/Pz8dP8ks0TNXEARFye2syjJqjBb7ahu2f5FstCYm7/z9bUNdGj1CUpel9kkTt1n6xjay596C03b1k+TqUwQO2tywewEUZ9K2rX0qLVo8vBzpeE39aSU9Vk2TZlWbxSBLX2e+FFhkoQd35VnKysZfuf0UmF5EP6My6xPNM62fZotnCMZgS6CwDklYzUlOXR0yXMUO/UvYmuJmfIHnLGyUpNTdPTrpylh5gsUBmd/IViVmP6d8P1q3IusOe2MlodYxCi2gcD2F1hlCYFmKXvjZ2LFpKZ5U+kqc4RD9Z4fJEGMvfoxGbz//d9TjSBFrSLC5pX64jXU/aFPCCsk8YNAK1bwy0KtCGGq8R0uCNmIq7U4sZdY2Z7VlP/jB1q8+Ju79DXyiB0kfcoQWLL9O0HirtLjjScga/k//EeaPb3ufVcsDNhLR5/TNA5Il7/yXfLqM1reD1+2c721BUySELSjMglq51o4CI0SkBD4iIHEqC0iVJw6Ntcf3n33fxQbGyK0TQPkb/fuVLmCU92rjqpO6hpHaOaUPPnkInr55dsoMTGaHn98lgyGadPSZIhVoLfddon4XSrTgLgtXLhKnj/99A2SGKo8R49OJPxQ/0mTnqS0tJP0ySer6eabLyYQPQj2O3viiY/VLRIvhZkeaOPkNbHZ6/P3FNHE4VW0epvmo6WSznrlMzNXgEv++JyMKsk5Qe/fNEolo/XzX6Extz0ifwj8ddGbtGHha6IeDfTZQ9fSzJcWUc+LLpc/xEPLtfObxn4trk81YijbV52Lo9LCIJ8YQQxjhmiacpA/aN3WzXsZ2eli1Ibl5tr/bmJFJPbx2rcxXc/TeGIkYsWCsNU1bnmBNMY44z3NncMkCt+05gTbVTiIdLYEJmqZh+0ktm41q7Ot53H3caGQXn6Uvj1HrF419XVrmd5zbRnlFTnS8nWaH6VlGuOinjNpH8v8+JoR6IoIOERFRZlPCc8RCq6+wUIj5k8wP9bXNPWdcAsIl5upGjdrtadq2McM2reG2gq5WtKee9sirZOnL7mGxlNdaZ7wLztuXoQwobqFxomNWT0keTKPNF1h49iGyhKhMdS0LaaYznmGTVKXL39KOqzPnv2PM35I/BdE2Ki1uNg+R2jLArEhKzZbhRO90enfMt3ZXOOZQfqw/1pGhv3Ew1j2gcWZdDzHiS77w5mZ9ox52Tr39OtGwQmJVJZ/Uteq2UprLRzuA6E9+gmy5EkZezZbS0KvvvqqwL0X7d27V5DTJ6ymaS5w9B2C9IpJwK8fHWwuWZeKk7v6C9PtuneTqNbGIgMActGgavrixVx65M0A+vJHL6sYnW37WM2UAxmBLoZAu5GxLoYzP64dCMAhHf/PI7aYwGap+D8csUkqi30I9Iiqo/Cgelq/y3y1pX25tH/qxYsXC9Otq9AYzhFmX/sIKrRLMBvCDwybmrJoCHSL85EatMKM5hcnYDuLAQm1tMpCu2rE8Wzax5gPnzMCXRkBJmNdufXP02fHxqbLlj0pTXibNx+ip55adJ7WlKt1LhC4+eabxf+SkEmrV68+F8VxGXYioFbzGk37dmbByRmBLo8Ak7Eu3wUYAEaAEWAEGAFGgBFoTwTsW7PdnjXlshkBRoARYAQYAUaAEeiECDAZ64SNyo/ECDACjAAjwAgwAh0HASZjHaetuKaMACPACDACjAAj0AkRYDLWCRuVH4kRYAQYAUaAEWAEOg4CTMY6TltxTRkBRoARYAQYAUagEyLAZKwTNio/EiPACDACjAAjwAh0HASYjHWctuKaMgKMACPACDACjEAnRIDJWCdsVH4kRoARYAQYAUaAEeg4CDAZ6zhtxTVlBBgBRoARYAQYgU6IAJOxTtio/EiMACPACDACjAAj0HEQYDLWcdqKa8oIMAKMACPACDACnRABJmOdsFH5kRgBRoARYAQYAUag4yDAZKzjtBXXlBFgBBgBRoARYAQ6IQJMxjpho/IjMQKMACPACDACjEDHQYDJWMdpK64pI8AIMAKMACPACHRCBJiMdcJG5UdiBBgBRoARYAQYgY6DAJOxjtNWXFNGgBFgBBgBRoAR6IQIMBnrhI3Kj8QIMAKMACPACDACHQcBJmMdp624powAI8AIMAKMACPQCRFgMtYJG5UfiRFgBBgBRoARYAQ6DgJMxjpOW3FNGQFGgBFgBBgBRqATIsBkrBM2Kj8SI8AIMAKMACPACHQcBJiMdZy24poyAowAI8AIMAKMQCdEgMlYJ2xUfiRGgBFgBBgBRoAR6DgIMBnrOG3FNWUEGAFGgBFgBBiBTogAk7FO2Kj8SIwAI8AIMAKMACPQcRBgMtZx2opryggwAowAI8AIMAKdEAHnTvhMrfJIzq5uFNZ7kJ5X4Yk0Ki/I0a9b68TV1Zl6947SsztxIp8KCkr167Y4cXQg2rIwi1Zu8qCn3vNviyLOOs/A6ATy9O8m86mvraWsg7+dUZ6vPlBIFw2qplG3h53R/e1xU49x4RTaW2uXjJ15dGxHrlk1nFwcycXDmWor6qi+rsEsrqNfuHm7UF11PdXXnvlzAR9nNyeqLqs1g8NBdHzkX19TT7VV9WZxrXnR1uUgf09/V73K1eV1EjM9QJy4ebkIDLS5dkPDKaosqjFGn/fn6N90ikQ71ZnV1dXTmRydHamqpG2fp63LaUn7eIg2dsTHWkhddQNVl5v3ZzNgzrML9FFXL2eqEX3zlOh/RnH3caVTp041eT+Rpv+UGPIL95TJU9Zl0clDRcZbO/U5kzEbzRvSoz/d8PrXeuxv335MP7/9N/26tU569Iig11+fo2f37bdb6O23l+vXbXHy4I0lFNatnr76yastsm+VPKc/+yGBkEEa6uvotSvireYbPXAk+UfE0N7vv7Qa/9XPnnT9pHK685oy+uAbb6tp7A0EUQrvF0j7vktvMggiL3yIBoiPSkF6GR3fnWdv9mKgdSMXd2c6/MsJKs2pbHJ/9JAgShgTTnuXp1FOcrFZ/ICpseTs2lThfXx3PuWmmKc1u/E8uACJGnNXXzq8JpMydpoTUHuq13N8BIX3DaRf3tpjdpt3kDuNuLkXndiTTwd/Pm4W15oXpysHhDB+dBj5RXiRo5MDlZysoCMbslpMmNx9XWnkbX30Kh9adaJJP+tzaRQFJfjKNCC2a97eq6fvCCfDb+xJFYXVtGvJUbPqYrAOiPKmNf+3V5DqMyfsZplauThdOf6RXhQ9NJh8wzzExOEUFaSV0JGN2S2eRLSkfS68pTfhnYDkHSmh3ctSrdT0/AwKivelgVfH0uaFh6g8v8qskqPv6ENVpbW0ad4Bs3BcZO4toOIT5dTr4kg54WySoBMHNP1qd+KHtefRMvfvoDevTqT5cy6x5za70+7ff4yuvvo5mjPnLbvvPdMb7p5RShknnWnfEZczzaLN7/vorssk/ieT9zVb1rg7/kKXP/wPm2m2JrlRToETgYC2hjg4OFDvSyLlRxIaHGsS0T+Qgnv4yUHWWnxLwuqE9iZzX4FVMtbc/cFiAJaDvNAeQIOgfiCI5720cRXRdudCmivHq5s7jb49kcL6BFCpIGFFJ8ooKM6XArv7tLhqlUXV9Mube2jDf/bbvGfPt2kyTfb+QptpOOLMEAhLDKALru8h3jNPyk8tpYqCKknMoE1rqbSkfdb+e59sw46kEVPPf6avWkF6KWUd6Jp9tuW9R6HcSseQHv3IP6w7nRCkx9L85+DgSOGJQ8jVw4sy9mwWsw2TShrmQ2dXd6oqKybfkEjyCgyxacJycfOguOETqEyYF7MO/CZUo+YzqebKwWPWVJZTbWXFaZ/Y068bRfYfRjkpSVR80v4Zd2VlDeF3OomODqbu3YNo9+40KitrqjFxc3OhIUMS6PDhE9LU6ezsRHV15oThpivKydP9FD33gfWPvxFfV09vih06lrIP76GSnBNm1YPWCr+M3b8K9bl1syra2CconLIP7aLyQpOGCGVA6mqq9TzRVvX1tdRQp5klcKwRvwYRZk3QNxydhMlC/CDu3n7yiDa2rA80Yk/cXkxTx1XQ8nWaClwmPoM/YYn+Umt1dGO6zbvjRoWKgbaSSrJP33dsZnIWEYXHymzOoh2dHQj/jOZNfDhB2hrqT0mTAtLARATzgleQhzA11FKNMIlaiou7E3n4uYl2rBdanWrxfplS6HkKM6qD0P54BrhRWa75DFml9gp0lxqF2uqmZag0MOtAo4RZtrHuKt7ZVdRFmHUsZ+Eq/nw5YsYvPm9SYwDNDwSaLWmWM1QSGjPgIrEtbvptQFs11BkAN9yLU5iBTolXHybK5sTNx0W8Oy5SU2HNrIt6QLMGbIXOV7aztfycRV+ARrdaaDxskQcPEe8k+lZ5PvpK03qhfdGnyvKs9xNr5Z7rMLwbiZdFU6Voky0fH9I1YTC9WZpUnYSG2itAjFXCpFpTad63W9I+eP8kSubDltkj4z0DrjDLoz9ZThChWUNfgbkTE4FyQRxtuQBA4wr8YdJGv7MU1SdrxSTUmplYxosygA2L/QicczI28Mob6bK5L4iPv6no3d99Rj++8ZisfcLIS2na0++Ll7ZRayNe2jX/+Ttt+/o/Mv7Kv7xJvcddKQlYeJ8hMqy8IJe+/PNsyk9PltdOLq50x/xfyC8sWl7jDwb+f13VU78+XTl6wmZOQABmv76YguNMJoPc1IO06I9TZXnN3GpXVGhogDBd3k0BASYz26+/HqSnnlqk53P11RfSH/84hdSsPDe3mIKD/ejRR+fTrl0mVT/8pyCrtrnr9xpPrnvxY4Lpb//qb6jvJdP1qC8fnU3Hdm2isF4DadY/PhMDo2YCQYI9Kz+nH17/i5526PTf0/g5jwvSrJEuRGz+/N+0fr6mwbrrk42i/V3o/64dpN/z4IpDlLzxB/rmmTv1sOZObn3/B/IP764nmbtUM8NYtjMS/LLdXZKxcUOqz5qMxV8UJgf8wuNletnGk5Be/tJf58APGcbg8+Y8bmQYxY4IoZ1fHSH1DH3E4AJt3tZPDlNpbiUNv6EnuYhZvpMgaPjIQ+C7kfS/Y/ogOnhGPHWLNRF6DBww2yqzqW+YFw27oQdli1kuNAkQDNRJ3x+jwgwNOw8/V7pgdg+JF+KLMstxMBOkGTQ9XhATU186vOaEMGOayD3Ib/yoMHkf6lFxnvpHQXMS2N2bTh4ukgOnelAMjsYJJ0ysiZOipLkbaYDbzq+PmN2j7j3TIwbpi+5MlBMLlQfK+e2/R+WAjbAE0ddjhodQcVa58OPRXBow4O/4MkUn5yBpg6bFyYFe5ZO1v4D2f2/q/9D6DZwWq5vc8Ly7lh6louNae4PgDLomTtcOgsyBXCuyqvI9H44hPfzFt8uB0racNCM1VaUmAgKC1PuSKIoc2E2vMjQ+0IbZIkJ6QjtOYK7FeygnT433FYiJ2F5RjiJTE+YOkNp1nxAPPWdLs3Y3oZlFf8OER8l+8Z5mGbSq6Ac9xoaraNFHquk30ScVge8W5yP7gdLAt9dEVK9gBzw5p2bKoNjedPmDL4kPegPBB2vhPZNp2+L3hQZM01Y4ODrR1U++K7QdTrRj6Xxa9+FLVCe0YhPueoK8g7SPrcI4MCpBEri9P3wlPtTBdMl9z6oomnjv05KI7fzmI/rgd2Po68d/R+k7N+jx9pSj32TlZMYLCyQRS9n0Iy1+7GZBJr6X11f++V9WUp950DPP3CiJ2LZtyfTSS4spL6+ERo3qQ1ddNVxm6uXlLolYfX0DzZv3Iy1fvpWCgkxkyVhyz+61An+i7HxtkDXG6efia5I4cRql7VhH3z5/Lx1au0LMwmvF4OBE17/6pXDM9KadSz+iJU/eTgUZR2jg5BsEQb5Kv33sbY8Kf45qAoH78PcT6NdP3xKz3Ww9vjVOvhZ4L5p7NeWlHZL9Cef4LbzniibZJx/TPjJ9Yq1r2ZrcYCMAfhCYAR/dZPtZMIBhZpifZl1baCNru4KRd/LaTKF5a6odRUb+UV5ycMMAp37QskCObsySWrtB0+PkQBzS008SMeQHIqYEH2Z8ULd/kSLJA/zkFKlCGgyU8Fnb8MF+2iHSQCMFfzXMrI0S0tNfDsx7lqVJ7U/viZF6dN8ruot3X/jGCR8xxBsJFxJhUBtyXQJ5iBk7fLy2LjosfWd6TYjUnXx9wzwlESvJqpAkAaZdy3xUgZjN4znb2nRnqxxojiDFVkinqiP6V98roqXmAf5SqC8coYFtawv60Y6vUmjD+/sl/tDOgTRZCjRWIGno99BwQrunBG2BMBC0de8mSdJo7Je4d8h18XLQ3rU0VeYDTeuQGQkEzRGk+wUhkojBlw/5VJfU6sRNlaOOGTvyJCYNwk+rLcVWOZ6Nk4Ji0d9sSagwQYOIwYS5/fMU6c8XGOOjTxhs3WdvOPRmGbtyaYuYRG0U7yF8TEH2MWE0CogYFgHtXHxEvqdws4AWTEmvCRFygQD8u9a/n0RJK4/pZBtp8I0AEYPf2rZPk+nAjxnynYRfHQSTtoFT4+SiGLzH6LNG8icTGf4gHj6SLOYImNRT5uFtcjXhzsflF3bNB3+XgzkKyTmSpJfVY9SlUpsC4rT6nWdkuJvQPl04+z4adu0cWvP+C3raDR+/RtCo4dfv0hnkHxmrx6lVeEc2r6KirGPyl7ptjR5vTzn6TRYnMKtF9ruAKksKJdlA9JYv3qGYIWMo/sKJFqnP7jIhIUyaJR9/fKHM6MiRLPrww/tp2rSR9N132yQpg0bs++930hdfrJNpBg6MpZiYkCYFhwfVU3mVGOVOI7tXfEo/vfWETHVo3XfyCK0mzIPQkCX9/F8Zhna67qVPaNh1dxLSQSuJNIVZ6cLEvEWYuuppw4JXT1Oa/dGFmWnC21OYkis0LUvWwV02M4GlprrGgaJCmqrebd5kJQJEC7N2pf2xTBIgPoQYmKBBakuBU781x35VpqOToyQ56hpHmMYgIOK7vjlKF93Rl4ZcG0/ewe5ioUFpkxWbSLt3hbZAAaQsVGj8IgYEitlyAaLkhx9HLDSoFiZMzKJ7jvcgT0H6jGTjxN58/Z6CY6W6Ng0DMZyg846W6M76bhtdpD8e8oUERHsLM6grZfyWJ+uIsCObsqRjesSAbkJjUyGJJMKhcQNBLBLOvyCNSkOMOCUwFVmuTFVxrXm0VY6brzYpsGbyVeWH9dVW0R5afUISehAmn1AP6WMGombUwKh7zuQIDQ36KQivqyDeZYJM5wsndPg6WkqyIMvoI/hhQoLBWQnINPJCf8QRJnL8lEQPDZKnWBkH3ypI6pYc6nt5tOgLvpQjtITQyuJetahinyADo2/vI9Na/sk9cm4Wodgqx72xDbGS2ZYojRgmKzCpQ7OISUl4/wBKXic+Wq0k0CziB/Mg2jBPkL/YC+uEIsLcFQN9BgQIAozh74Z3BNo9aLLwjmGxEdpHTtQtfLbiRoZKl4WU9ZnS5AnN9slDhXIRE8zT0NBBO5e67iQp3BCmFpBYPi7eZ5amCJxTMqYI077vv2paExESHJcow1O3r9XjD6//nyRj0IQZJenHr/VL+Ag5u5jMGDCJ9RxzBc18eZEcrDFQwwwKYgaxpxy9EIsT+LRBPHwD6JZ/rzCPRY9uJQkJ8ZcDS2rqST3H9PQc6QsWGKiZiRTp2rRpv57m4MHjVslYaYUDhQaevn47ly3Q81In4X0GydPug0c3eWbf4AgZB3ML/AAj+w2jP31/RPiaZQriPZ+2//dDlU27HF1cTlFx2elJqK3KwSneO9iDDvyUYSsJ9bgoXPqN4EPVnoJBs7mVV1huvndFmtSaYRDcuzy9SXVBGJT/CUx/MEtAQ6UEq0n7CFOM0USCOGXWVOlQFyXQnmEwh2AAgBiJW1FmmQxTf7zE6kcIVo/iZxSQXgjMZNI0KYiYEgx+/hHe6vK8OdY1bqcBE5wtgQ8epDjTpHnBgAuHfzxra5ExlIEVfYo44FoJBnf4GSkxmo9BgKGNBAmHjxTILTQk4//QXxKy7INFdEKsIFb3e3fTzGPWNG6eAVofcBd+a8YypP8hZlDnodRWahM6qdUzKZLNaor3BM9g9G1EPwfRBfltreEBWuiBwkSMSY1RLLdtUeZgpIEvK0S9f3h3oE1GP5gwd6BohzLpAoBJkhJP4fcG0mZcwavHif6q8jK+y3CBsEXG1L18NEfgnJIxvReiR1oR5WDv6Ng4jRdpHPRz85fTzEkbvduQ58nkvfT29AE05rZHqOdFl1PM0DE0Z+E6enNqItVWV4pqaB6RLSnHSjVl0KkGLY/9q5bS6nefNUt2qr6pBkbN1K05rprdbHFhqmtTzFRe9Y3lwVypxMXF+gc/9YSL0BBVkYeb2Huoumme8n6Bp/K/U/nhiBcXsuzZuylj7xZ5rv7UVZm+TJ89OEP4m82ggVfOpsi+w+jie56i8N6DafmLf5TJVb3Vvcr5Xl239jHIv57Et4RSMkw+EfaWga0IQE6ykqwTLajlfcX+ODAVtNbH1t462pNe+XvBdwjaMWiUWirSlCY0GxhAj27IloNwt3gf6n9ljPE1lNkZBySz/M1fZxmFhQVm0phm22fJ0rxijFN9UfNwNsbg3CIfy+h2ulaOzYpINlsNa49gBbNm82gmEmZnDMDQUmAwBnmA+RFaKktR3y6z8Mb6wf+t6P1yqTUN7xtAMHlBcwZzoxIsNFj37j51qR/VAoTGz7Eefj6fqDaE07w6t1pfw3hkNb4VArGFC4gYJojQbNUKze/I23o3eQfNXofGdjNWD9oy+HYqVwS4NhwR7gxpQoOpBL5oe6xsrYHJHNwiLEX5jlmG87VtBEysx3aaVospOJ4q8xo4ebbVPOH8DokdNl6P7zlmsjyHb5I9ArK26t9P03s3jpTO/1g5OeCK62UW9pRTUSRUqmJ0DYiMMytebUIaFNdbvJTiY2b4YaWnUd544w1atmyZ/Pn4mJyejWmKispEMacoMtLk9In43NwSGR4TE6onj40NJayULCzUNAnJyZoKeuRIk2q/T58oPb3xZE+KRkiG9DY5nBrjmztXzxzWZ7DZ8+LZQXKNsn/VEvriT7PodbFool74m2FVqxI42bv7mEwd/S67VkU1OZbkZMkVk25e1nGDJg5ta1wsYJnJiH7as+5ONml2LNM0d41VSPDFSNuaoxNSy/Qgaxhc4Pdyvktwgh9FDQ6S+yJh5RqcgC1X88HZXPl/4cMKP6zKxo02A2M1rVPK2iy5CADOwtiewR5RAxk0jkr8LGb4alWdWm2JD7/6Kc0LTJOqfno+jZtGquuWHtHOWFCAH8xvrS0gPNA4hvezbkZFeUgDMeICcy2kstik/cM1cAcp1VY6IqSpwH8NhBt+PUaB2Qz3wgRZJnwFgavSWhrT4RxbOCjxF+2F+zDwK4HpPnXzSdo0/6D0LwRBUOWV5VVK7Sn6kmo7dVSTsuqyGmFaM/UDkNUzHcyhQUT7KX8mVcfWOsKUC7GmUVRlVIh2grYIuCsBYYEm0XKiZqt91H04Vgl8rLUxNG3QAmNvLuQDrTQmSpZi1JzB5A2xXOSCyRhM4+ve2SfrGZZoIuVYgYm98xqEyVW1nTrKvBq10sZyjOeyQP5zWgScfH19nzltqlZKcDJlHw29+lbqPuQi6WAPf6sRM++WPl+HN6wUH/ZUGj5LrBoU/l/e3cKENmUQDZ95l1iW60jLnrtHfADKqff4KRQU05M2ffIvvVYjZt0jCQsWA0AmP/o69Rh9mXAaLaHAqHiRx91y8N+48DXhG3GyReWozBuE1qn/pJkUEp9Irp5eYgVftHgBhIOjqEv3waMoQqzojB8xQbwwJfKZsO9V4sXT6OCa5SoLuuKKK4QDvraibMmSJVRT05QIwfl+0qShFB8fRp6ebhQeLvxzsgpF2jq68MI+FBERSPADw/YVjzwygzw8XOmjj36ilJQs+Zs9eywlJIRTXFwYXXPNKHmOCvz002+UnW3S5kA7hA1Qg/wbaOka00dWVRbP6hcaJfB9QwXpx9wjB6TvHp47JKGfMF3lUlT/EWKfr5fFShxfwt5sPsHhdPNby4SZAttS1AnsrqM4Qa4LMlIIfmiQeHEdINoF7YiFGdBgwtcMhNuIG9JWlRURyFr8iIlS++nu4y/MzemIkhKeOFSu8IRZFOV5i61OjPFI9PLcIgoPrqf7Xu5GVcJ3zF6BOQ4DBHxAdI2MIRN8KHtPjBK+MKJvGfxlDEnsOsUMFVsOnIl/E/w7MJDhwwltnfpBu4FBE467w8RgBXMTVnzmHy0VDtTBwj/LS2pIUNGoQd2kDwo0fVXCmRozcBAiOHBjewoQCtzjJHZ4BxmCCRHkDnJSmKkQhkFB8zErpKrGpe5wYsZHOvXXkxJH/0hvSXKBKdLjfx7AIA4/KTjkY4AJF74tGGBhOoN5FaQwTqychBYN5dSU1VGkqC9W+4EsYlUlzGjQtsAnxh5B3rgfdYGvmzIr2pPH6dLCzIXngX8hng8mOhB5Z2H2AynCMwBbDN5Y3RgstExRg4KoXJDm9G255tkLTRnwBIlCm4BA4mjso3gG3A9NTp3YJBUEAWmAJ1b+aoSOJPaKAAI3kAbVXv7AVrQhVnmib6KN1QbCMHXCZIcNWDFgdx8WLAfsY9s1rQq2sYDfWIi4D5MVaJcDRLvDibxAtDMGdWx9AjIPAoMNVJEnFpBgiwVobOwRPBP6DEyFmDy1tgBPvAvwodRMtfXyHesnFqNAe4Tnw0QBZNdX4IbVhvHinQS2x+H7aPF9sNU+xnqDZMHHC+0Kf1BsVyLxFpMHaLixaTAWhyROipa4wUx5fJdQIghBf8b9cnIh2hTfMky88O6j7UGS+02OkX0d+WPlK1wQ4F6Q27ihNN47vMv+YlKgzLR4PnxrsMoa/ThmWAj5RWrfi+AevhQpfDrxzcFm00bibnwuW+fYZidWrN7EAoiutCqz9ad/thAW4Rhs//fKQ2LwfkVqqZSmCisrITDJLXvmLpr+3DwadNWNetiqd58RA3/ji9UCnbaLu6fc/mLA5bNkHtDE7Fr+idwvq8XlyDu1P9+/9ihNeuBFAumD4L9GghM7VhPOFM7rEX0voGlPvaclFl8xrPA8E3nttaX0wANX06xZY+Xt+K+RsC3Fs89+Sm+9dQ8NHhwvf4hct24frVy5Q6ZrECbTv/xlAb3wwi00dmw/6U926NAJ8d8sRVJtrbnJFKsoN+52o/EXnMZUKXM2/4P2+eyha8UzL5LmX5iAIdgTbOc3C+U5ZrvQIk568GV5ja96aW6mNG1qAWJbDWHWnRXbSxJrkGvsVRY9aJSKNjtiMUfSz0uoj0h32f1/Jzjuf3jrOD3N2g9elP5p3cX98GWz3NoiwKeBhvetpp+3elBhqWmmqmdwmhMMliG9/ChdDC4YOKwJtovAh8y43YK1dOcqDMQRH2ajwMEey9WhBcMrtHdZmoyGD9I+4ciN/zEg9sJQncCAuGFwHTpT89WE474aGDHApG/LkaQBgxKeHcQRJEJpO9TRuhlRq9n+H45JYoj/TQCCAQAEQDIBLYlcATZgSqz88OPjD9HMxdpCAqwATVmfJVd7YUEC6gJSAz8XewVO0ErUoKOuW+uYlVQgyLI2KCpsUWf4WkFAwPb9L50wuKsVlCBCe8REwJpgJSpWusEhHmK54zm0i8AHbQMihQEO20rAcR4aOhBtCDA1bkMiAxv/QNOjfL6QH8pUgtWFRi0R4g+tOq43IfoRtuVAG4JkKYEGUGk3QVLg8A2yhx+eF/Vpru+ofCyPWL0JAUFoK8FqQxAZoy8jtF6YAEFAVjE5QDw06hD4YEF7aCm22seYLlP0GRBVECtMtNTWLiCb0HQNFlu/QOAPhp+jQSOnwtFGasIEs6byPRT8TNZRLcpAX4S/FzSmSuCUD60ZTNAB12jPgzi1kAntiD6FevS/KkbehjzQpiwtR8AhKioK7XHOBZoRH6EVyT16QK5ItKxAsNBEgVRZ26zVMq21a6zow6ajMFeiDFtytuUgX6ysDO01QAzWNWJ16H55tFXe2YQHB/sSNn5NSjpG1dXWt2nA/3UJbdqbb95Ffft2Fysun6eKCnPzRnRonTApZNN/lvjQ8/P8zqhK2Og2OCFRahqt+ZehfbEPGIgWCJI1waaxVSVCk1Kcby26VcJeub+QZk8qp6E3i6XZRdb96JorSDk5Y9m+tRkezHlj7+knfW/gL9Yagv9GRK1qA8lRK6FaI++W5HHhLb2kFmPb58lSI4jVgda0RBgYMEhAg6GTr5YUYJFG04g0SI2NRZR+Ce0LtB2Y9au9jfRIcQKNmruoS4VYaHCmdQGBhc8U/Khaqy2NdbQ8B9GHpgrkQxETlQZaBTi4t/X/SQitCRYUqMFZlY8jSB72l1r1+m654S78jPDf2FiKNI+JVYbQokoSZZmg8VqavoVWBgTNWn+Cxgb/n+bZ/D+aY+7sK7XKu79JlQTIRlVaJRhtBK042s4a+cPiFmisJC6CvLWVoB/VC62jte/TJQ8PkiQQRBCaX2iTLfsa6oXtU1w9tU2VQchsCTTreNfwvJb+oLLPijJknI2Jq618VfiIm3pJgolrEECl4VPxnfnYbmSsM4PaHs82d+5UqRbevPkgjRnTV5hGL6D8/FK64YZXrFZneL9qqqh0pKSjJm2A1YQdPDAxrpY8xWKFHQeb+lK05NGwmSHMK2qjUst7MBPHDDBfaHWsfQwt07fkGmYyDFwQDFzWyEdL8jnTNEYydqZ5dMT7MJBjUFr/3n7pN9MRn6E162wkY62Zb1vlBVPc2HuF+4RYtQsNIQuRImPN7Y14PuEEcuvipn37YLJvrW/q+fSMtupyTs2UtirB4WePgL+/F40b15+mTh0hMwMRe+yxBTYz3ib+z8auIAdSz45swqzTnIAoZR+0z6+lufwQBy2FNU3F6e5rrXhrM+fWyvt8zidFbEQJM6Hlf2tzPte5LevWnIakLcs907zh54YNSY1bLJxpXp3pvjPVFLcHBtCKVlLbmZjb45laWiZrxlqKVAdIBzUx/gskrLKsrTWtduoAVecqMgKMACPACDACXRYB1ox1oqbHDCgnR3ME7kSPxY/CCDACjAAjwAh0agTsX17WqeHgh2MEGAFGgBFgBBgBRuDcInDONGPu7vYvNT+3UHBpjAAjwAgwAowAI8AInHsEWDN27jHnEhkBRoARYAQYAUaAEdAROGeaMVViVVWVOuUjI8AIMAKMACPACDACXR4B1ox1+S7AADACjAAjwAgwAoxAeyLAZKw90eeyGQFGgBFgBBgBRqDLI8BkrMt3AQaAEWAEGAFGgBFgBNoTASZj7Yk+l80IMAKMACPACDACXR4BJmNdvgswAIwAI8AIMAKMACPQnggwGWtP9LlsRoARYAQYAUaAEejyCDAZ6/JdgAFgBBgBRoARYAQYgfZEgMlYe6LPZTMCjAAjwAgwAoxAl0eAyViX7wIMACPACDACjAAjwAi0JwJMxtoTfS6bEWAEGAFGgBFgBLo8AkzGunwXYAAYAUaAEWAEGAFGoD0RYDLWnuhz2YwAI8AIMAKMACPQ5RFgMtbluwADwAgwAowAI8AIMALtiQCTsfZEn8tmBBgBRoARYAQYgS6PAJOxLt8FGABGgBFgBBgBRoARaE8EmIy1J/pcNiPACDACjAAjwAh0eQSYjHX5LsAAMAKMACPACDACjEB7IvD/LD1itSglAtsAAAAASUVORK5CYII=;" parent="1" vertex="1">
                    <mxGeometry x="2050" y="579" width="611" height="100" as="geometry"/>
                </mxCell>
                <mxCell id="162" value="Clicked on a section header" style="rounded=0;whiteSpace=wrap;html=1;fontFamily=Helvetica;fontSize=12;fontColor=#000000;fillColor=#99CCFF;" parent="1" vertex="1">
                    <mxGeometry x="3430" y="570" width="270" height="45" as="geometry"/>
                </mxCell>
                <mxCell id="163" value="" style="edgeStyle=none;html=1;fontFamily=Helvetica;fontSize=12;fontColor=#000000;" parent="1" target="164" edge="1">
                    <mxGeometry relative="1" as="geometry">
                        <mxPoint x="3700" y="591.0227272727273" as="sourcePoint"/>
                    </mxGeometry>
                </mxCell>
                <mxCell id="164" value="Event Handler" style="rounded=0;whiteSpace=wrap;html=1;fontFamily=Helvetica;fontSize=12;fontColor=#000000;fillColor=#006633;" parent="1" vertex="1">
                    <mxGeometry x="3765" y="570" width="265" height="44.17" as="geometry"/>
                </mxCell>
                <mxCell id="165" value="One section expanded, all others collapsed" style="rounded=0;whiteSpace=wrap;html=1;fontFamily=Helvetica;fontSize=12;fontColor=#000000;fillColor=#99CCFF;" parent="1" vertex="1">
                    <mxGeometry x="3430" y="630" width="270" height="45" as="geometry"/>
                </mxCell>
                <mxCell id="166" style="edgeStyle=none;html=1;exitX=1;exitY=0.5;exitDx=0;exitDy=0;fontFamily=Helvetica;fontSize=12;fontColor=#000000;" parent="1" target="167" edge="1">
                    <mxGeometry relative="1" as="geometry">
                        <mxPoint x="3700" y="652.4999999999998" as="sourcePoint"/>
                    </mxGeometry>
                </mxCell>
                <mxCell id="177" value="" style="edgeStyle=none;html=1;fontFamily=Helvetica;fontSize=20;fontColor=#000000;" parent="1" source="167" target="175" edge="1">
                    <mxGeometry relative="1" as="geometry"/>
                </mxCell>
                <mxCell id="167" value="State" style="rounded=0;whiteSpace=wrap;html=1;fontFamily=Helvetica;fontSize=12;fontColor=#000000;fillColor=#99CCFF;" parent="1" vertex="1">
                    <mxGeometry x="3760" y="630" width="270" height="45" as="geometry"/>
                </mxCell>
                <mxCell id="174" value="&lt;font color=&quot;#000000&quot; style=&quot;font-size: 20px;&quot;&gt;Preliminary Design&lt;/font&gt;" style="rounded=0;whiteSpace=wrap;html=1;fontFamily=Helvetica;fontSize=20;fontColor=#FFFFFF;fillColor=#99CCFF;" parent="1" vertex="1">
                    <mxGeometry x="3560" y="450" width="347" height="70" as="geometry"/>
                </mxCell>
                <mxCell id="178" value="" style="edgeStyle=none;html=1;fontFamily=Helvetica;fontSize=20;fontColor=#000000;" parent="1" source="175" target="176" edge="1">
                    <mxGeometry relative="1" as="geometry"/>
                </mxCell>
                <mxCell id="175" value="expandedIndex" style="rounded=0;whiteSpace=wrap;html=1;fontFamily=Helvetica;fontSize=12;fontColor=#000000;fillColor=#99CCFF;" parent="1" vertex="1">
                    <mxGeometry x="4090" y="630" width="130" height="45" as="geometry"/>
                </mxCell>
                <mxCell id="176" value="number" style="rounded=0;whiteSpace=wrap;html=1;fontFamily=Helvetica;fontSize=12;fontColor=#000000;fillColor=#99CCFF;" parent="1" vertex="1">
                    <mxGeometry x="4280" y="630" width="110" height="45" as="geometry"/>
                </mxCell>
                <mxCell id="179" value="" style="rounded=1;whiteSpace=wrap;html=1;fontFamily=Helvetica;fontSize=12;fontColor=#000000;fillColor=none;" parent="1" vertex="1">
                    <mxGeometry x="510" y="230" width="4040" height="740" as="geometry"/>
                </mxCell>
                <mxCell id="184" style="edgeStyle=none;html=1;entryX=0.5;entryY=0;entryDx=0;entryDy=0;fontFamily=Helvetica;fontSize=20;fontColor=#000000;" parent="1" source="181" target="182" edge="1">
                    <mxGeometry relative="1" as="geometry">
                        <Array as="points">
                            <mxPoint x="800" y="1280"/>
                            <mxPoint x="620" y="1280"/>
                        </Array>
                    </mxGeometry>
                </mxCell>
                <mxCell id="185" style="edgeStyle=none;html=1;entryX=0.5;entryY=0;entryDx=0;entryDy=0;fontFamily=Helvetica;fontSize=20;fontColor=#000000;" parent="1" source="181" target="183" edge="1">
                    <mxGeometry relative="1" as="geometry">
                        <Array as="points">
                            <mxPoint x="800" y="1280"/>
                            <mxPoint x="980" y="1280"/>
                        </Array>
                    </mxGeometry>
                </mxCell>
                <mxCell id="181" value="&lt;font color=&quot;#000000&quot;&gt;Better Question&lt;br&gt;Does any component &lt;b&gt;besided&lt;/b&gt; Accordion reasonable need to know which item is expanded?&amp;nbsp;&lt;br&gt;&lt;/font&gt;" style="rounded=0;whiteSpace=wrap;html=1;fontFamily=Helvetica;fontSize=12;fontColor=#FFFFFF;fillColor=#99CCFF;" parent="1" vertex="1">
                    <mxGeometry x="670" y="1120" width="260" height="110" as="geometry"/>
                </mxCell>
                <mxCell id="182" value="&lt;font color=&quot;#000000&quot;&gt;Define in App&lt;br&gt;&lt;/font&gt;" style="rounded=0;whiteSpace=wrap;html=1;fontFamily=Helvetica;fontSize=12;fontColor=#FFFFFF;fillColor=#99CCFF;" parent="1" vertex="1">
                    <mxGeometry x="490" y="1300" width="260" height="110" as="geometry"/>
                </mxCell>
                <mxCell id="183" value="&lt;font color=&quot;#000000&quot;&gt;define in Accordion&lt;br&gt;&lt;/font&gt;" style="rounded=0;whiteSpace=wrap;html=1;fontFamily=Helvetica;fontSize=12;fontColor=#FFFFFF;fillColor=#99CCFF;" parent="1" vertex="1">
                    <mxGeometry x="850" y="1300" width="260" height="110" as="geometry"/>
                </mxCell>
                <mxCell id="186" value="&lt;font color=&quot;#ffffff&quot;&gt;Yes&lt;/font&gt;" style="text;html=1;strokeColor=none;fillColor=none;align=center;verticalAlign=middle;whiteSpace=wrap;rounded=0;fontFamily=Helvetica;fontSize=20;fontColor=#000000;" parent="1" vertex="1">
                    <mxGeometry x="670" y="1250" width="60" height="30" as="geometry"/>
                </mxCell>
                <mxCell id="187" value="&lt;font color=&quot;#ffffff&quot;&gt;No&lt;/font&gt;" style="text;html=1;strokeColor=none;fillColor=none;align=center;verticalAlign=middle;whiteSpace=wrap;rounded=0;fontFamily=Helvetica;fontSize=20;fontColor=#000000;" parent="1" vertex="1">
                    <mxGeometry x="850" y="1250" width="60" height="30" as="geometry"/>
                </mxCell>
                <mxCell id="189" value="" style="rounded=1;whiteSpace=wrap;html=1;fontFamily=Helvetica;fontSize=12;fontColor=#000000;fillColor=none;" parent="1" vertex="1">
                    <mxGeometry x="460" y="1040" width="700" height="520" as="geometry"/>
                </mxCell>
            </root>
        </mxGraphModel>
    </diagram>
</mxfile>